<svg width="1582" height="2100" viewBox="0 0 1582 2100" fill="none" xmlns="http://www.w3.org/2000/svg">
<path d="M131.833 225V1875" stroke="black" stroke-width="20"/>
<path d="M1450.17 225L131.833 225" stroke="black" stroke-width="20"/>
<path d="M1450.17 1875V225" stroke="black" stroke-width="20"/>
<path d="M131.833 1875L1450.17 1875" stroke="black" stroke-width="20"/>
<path d="M131.833 825L1450.17 825" stroke="black" stroke-width="20"/>
<path d="M131.833 1275L1450.17 1275" stroke="black" stroke-width="20"/>
<path d="M791 825V1290" stroke="black" stroke-width="20"/>
<path d="M131.833 225V1875" stroke="white" stroke-width="12" stroke-dasharray="24 24"/>
<path d="M1450.17 225L131.833 225" stroke="white" stroke-width="12" stroke-dasharray="24 24"/>
<path d="M1450.17 1875V225" stroke="white" stroke-width="12" stroke-dasharray="24 24"/>
<path d="M131.833 1875L1450.17 1875" stroke="white" stroke-width="12" stroke-dasharray="24 24"/>
<path d="M131.833 825L1450.17 825" stroke="white" stroke-width="12" stroke-dasharray="24 24"/>
<path d="M131.833 1275L1450.17 1275" stroke="white" stroke-width="12" stroke-dasharray="24 24"/>
<path d="M791 825V1290" stroke="white" stroke-width="12" stroke-dasharray="24 24"/>
<path d="M131.833 225V75L1450.17 74.9999V225" stroke="black" stroke-width="5"/>
<path d="M1450.17 1875V2025L131.833 2025V1875" stroke="black" stroke-width="5"/>
<path d="M461.417 80V825" stroke="black" stroke-width="5"/>
<path d="M1120.58 80V825" stroke="black" stroke-width="5"/>
<path d="M131.833 225L1450.17 825" stroke="black" stroke-width="5"/>
<path d="M1450.17 225L131.833 825" stroke="black" stroke-width="5"/>
<path d="M791 225L131.833 525L791 825L1450.17 525L791 225Z" stroke="black" stroke-width="5"/>
<path d="M131.833 375L1450.17 375" stroke="black" stroke-width="5"/>
<path d="M131.833 675L1450.17 675" stroke="black" stroke-width="5"/>
<path d="M461.417 1275V2020" stroke="black" stroke-width="5"/>
<path d="M1120.58 1275V2020" stroke="black" stroke-width="5"/>
<path d="M1450.17 1275L131.833 1875" stroke="black" stroke-width="5"/>
<path d="M791 1275L131.833 1575L791 1875L1450.17 1575L791 1275Z" stroke="black" stroke-width="5"/>
<path d="M131.833 1425L1450.17 1425" stroke="black" stroke-width="5"/>
<path d="M131.833 1725L1450.17 1725" stroke="black" stroke-width="5"/>
<path d="M791 1275V2020" stroke="black" stroke-width="5"/>
<path d="M791 75V825" stroke="black" stroke-width="5"/>
<path d="M131.833 1275L1450.17 1875" stroke="black" stroke-width="5"/>
<path d="M131.833 525L1450.17 525" stroke="black" stroke-width="5"/>
<path d="M131.833 1575L1450.17 1575" stroke="black" stroke-width="5"/>
</svg>
