<svg width="200" height="100" viewBox="0 0 200 100" fill="none" xmlns="http://www.w3.org/2000/svg">
<rect x="0.5" y="0.5" width="199" height="99" stroke="black"/>
<path d="M20 42.4271L21.5318 47.1416L21.7002 47.6598H22.2451H27.2023L23.1919 50.5736L22.751 50.8939L22.9194 51.4121L24.4513 56.1266L20.4408 53.2129L20 52.8926L19.5592 53.2129L15.5487 56.1266L17.0806 51.4121L17.249 50.8939L16.8081 50.5736L12.7977 47.6598H17.7549H18.2998L18.4682 47.1416L20 42.4271Z" fill="#FFB800" stroke="black" stroke-width="1.5"/>
<path d="M61.402 46.676L60.596 46.65L59.842 43.53C58.8367 43.3567 58.0827 43.27 57.58 43.27C56.592 43.27 55.4827 43.4693 54.252 43.868C53.888 44.544 53.602 45.4107 53.394 46.468C53.186 47.5253 53.082 48.522 53.082 49.458C53.082 54.242 54.46 56.634 57.216 56.634C58.3947 56.634 59.3307 56.4607 60.024 56.114L60.57 52.942C61.662 52.942 62.494 53.0027 63.066 53.124C63.3433 55.0133 63.482 56.5473 63.482 57.726C63.066 58.038 62.2253 58.3847 60.96 58.766C59.712 59.1473 58.4813 59.338 57.268 59.338C52.1027 59.338 49.52 56.1487 49.52 49.77C49.52 46.7367 50.144 44.4313 51.392 42.854C52.6573 41.2767 54.668 40.488 57.424 40.488C58.7933 40.488 60.0067 40.6873 61.064 41.086C62 41.4327 62.7973 41.814 63.456 42.23C63.456 43.4087 63.326 44.83 63.066 46.494C62.5807 46.6153 62.026 46.676 61.402 46.676ZM72.0313 47.56C71.4073 47.56 70.6967 47.716 69.8993 48.028C69.674 48.3747 69.4573 48.99 69.2493 49.874C69.0587 50.7407 68.9633 51.616 68.9633 52.5C68.9633 54.1293 69.206 55.2907 69.6913 55.984C70.1767 56.66 70.9567 56.998 72.0313 56.998C73.1233 56.998 73.912 56.66 74.3973 55.984C74.8827 55.2907 75.1253 54.112 75.1253 52.448C75.1253 50.7667 74.874 49.536 74.3713 48.756C73.886 47.9587 73.106 47.56 72.0313 47.56ZM72.0313 45.48C74.0593 45.48 75.6887 46.104 76.9193 47.352C78.1673 48.5827 78.7913 50.3073 78.7913 52.526C78.7913 54.7273 78.176 56.4087 76.9453 57.57C75.7147 58.7313 74.0767 59.312 72.0313 59.312C69.986 59.312 68.348 58.7313 67.1173 57.57C65.904 56.4087 65.2973 54.7273 65.2973 52.526C65.2973 50.3073 65.9127 48.5827 67.1433 47.352C68.374 46.104 70.0033 45.48 72.0313 45.48ZM86.8276 48.288C86.7929 48.2013 86.6196 48.158 86.3076 48.158C85.9956 48.158 85.4582 48.392 84.6956 48.86C84.6262 52.2573 84.5829 54.8053 84.5656 56.504L86.5936 56.764C86.5936 57.5093 86.3942 58.2547 85.9956 59H79.5216L79.2876 57.57C80.3622 57.1713 81.1422 56.9113 81.6276 56.79L81.3416 48.366C80.4402 48.2967 79.6862 48.1667 79.0796 47.976L79.2616 46.104C79.7296 45.896 81.4196 45.7573 84.3316 45.688C84.4876 45.844 84.5656 46.1473 84.5656 46.598C86.0909 45.8527 87.0529 45.48 87.4516 45.48C87.8676 45.48 88.3702 45.584 88.9596 45.792C89.5662 45.9827 90.0256 46.1907 90.3376 46.416V46.858C90.3376 48.2793 90.1642 49.5967 89.8176 50.81C89.5229 50.9313 89.1329 50.992 88.6476 50.992C88.1622 50.992 87.7116 50.966 87.2956 50.914C87.2436 50.6887 87.0876 49.8133 86.8276 48.288ZM99.1313 59.312C98.1259 59.312 97.0686 58.9827 95.9593 58.324C95.9246 60.1613 95.9073 61.548 95.9073 62.484L97.9353 62.718C97.9353 63.4807 97.7359 64.2347 97.3373 64.98H90.8633L90.6293 63.55C91.7386 63.134 92.5186 62.874 92.9693 62.77L92.4753 48.34C91.6606 48.2707 90.9759 48.1407 90.4213 47.95C90.4213 47.3087 90.4819 46.6847 90.6033 46.078C91.3313 45.922 92.9433 45.7833 95.4393 45.662C95.5779 45.8873 95.7339 46.2687 95.9073 46.806C97.7099 45.922 98.8973 45.48 99.4693 45.48C101.185 45.48 102.459 46.0867 103.291 47.3C104.123 48.496 104.539 50.108 104.539 52.136C104.539 54.164 104.071 55.8713 103.135 57.258C102.217 58.6273 100.882 59.312 99.1313 59.312ZM96.1153 49.094L96.0113 55.672C96.4099 56.036 96.8779 56.3567 97.4153 56.634C97.9699 56.894 98.4379 57.024 98.8193 57.024C100.345 57.024 101.107 55.5593 101.107 52.63C101.107 51.538 100.995 50.6627 100.769 50.004C100.561 49.3453 100.31 48.886 100.015 48.626C99.7379 48.3487 99.4086 48.21 99.0273 48.21C98.2646 48.21 97.2939 48.5047 96.1153 49.094ZM111.768 47.56C111.144 47.56 110.433 47.716 109.636 48.028C109.41 48.3747 109.194 48.99 108.986 49.874C108.795 50.7407 108.7 51.616 108.7 52.5C108.7 54.1293 108.942 55.2907 109.428 55.984C109.913 56.66 110.693 56.998 111.768 56.998C112.86 56.998 113.648 56.66 114.134 55.984C114.619 55.2907 114.862 54.112 114.862 52.448C114.862 50.7667 114.61 49.536 114.108 48.756C113.622 47.9587 112.842 47.56 111.768 47.56ZM111.768 45.48C113.796 45.48 115.425 46.104 116.656 47.352C117.904 48.5827 118.528 50.3073 118.528 52.526C118.528 54.7273 117.912 56.4087 116.682 57.57C115.451 58.7313 113.813 59.312 111.768 59.312C109.722 59.312 108.084 58.7313 106.854 57.57C105.64 56.4087 105.034 54.7273 105.034 52.526C105.034 50.3073 105.649 48.5827 106.88 47.352C108.11 46.104 109.74 45.48 111.768 45.48ZM126.564 48.288C126.529 48.2013 126.356 48.158 126.044 48.158C125.732 48.158 125.195 48.392 124.432 48.86C124.363 52.2573 124.319 54.8053 124.302 56.504L126.33 56.764C126.33 57.5093 126.131 58.2547 125.732 59H119.258L119.024 57.57C120.099 57.1713 120.879 56.9113 121.364 56.79L121.078 48.366C120.177 48.2967 119.423 48.1667 118.816 47.976L118.998 46.104C119.466 45.896 121.156 45.7573 124.068 45.688C124.224 45.844 124.302 46.1473 124.302 46.598C125.827 45.8527 126.789 45.48 127.188 45.48C127.604 45.48 128.107 45.584 128.696 45.792C129.303 45.9827 129.762 46.1907 130.074 46.416V46.858C130.074 48.2793 129.901 49.5967 129.554 50.81C129.259 50.9313 128.869 50.992 128.384 50.992C127.899 50.992 127.448 50.966 127.032 50.914C126.98 50.6887 126.824 49.8133 126.564 48.288ZM135.462 59.312C133.988 59.312 132.844 59.0087 132.03 58.402C131.232 57.7953 130.834 56.7727 130.834 55.334C130.834 53.9647 131.31 52.8467 132.264 51.98C132.818 51.4773 133.59 51.1827 134.578 51.096C135.566 51.0093 136.926 50.966 138.66 50.966V50.55C138.66 49.4927 138.486 48.7213 138.14 48.236C137.81 47.7333 137.221 47.482 136.372 47.482C135.938 47.482 135.548 47.5687 135.202 47.742L134.578 50.004L132.654 49.952C132.22 49.2933 131.986 48.2447 131.952 46.806C132.298 46.6327 133.113 46.3727 134.396 46.026C135.678 45.662 136.502 45.48 136.866 45.48C138.738 45.48 140.098 45.87 140.948 46.65C141.797 47.4127 142.222 48.6347 142.222 50.316C142.222 51.98 142.144 54.1813 141.988 56.92C142.976 57.0067 143.738 57.154 144.276 57.362C144.293 57.57 144.302 57.8213 144.302 58.116L144.276 58.688C143.028 59.104 141.771 59.312 140.506 59.312C140.176 59.312 139.934 59.3033 139.778 59.286C139.518 58.766 139.362 58.142 139.31 57.414H139.18C138.85 57.726 138.27 58.1247 137.438 58.61C136.623 59.078 135.964 59.312 135.462 59.312ZM134.162 55.49C134.162 56.062 134.335 56.4867 134.682 56.764C135.046 57.024 135.453 57.154 135.904 57.154C136.354 57.154 136.892 56.9547 137.516 56.556C138.14 56.14 138.642 55.7673 139.024 55.438L138.894 53.046C137.524 53.1153 136.493 53.2453 135.8 53.436C134.708 53.6613 134.162 54.346 134.162 55.49ZM149.711 39.682C150.041 39.682 150.249 39.6907 150.335 39.708C150.335 40.6093 150.223 41.398 149.997 42.074C149.98 43.1487 149.954 44.6653 149.919 46.624C149.85 50.9227 149.798 54.216 149.763 56.504L151.791 56.738C151.791 57.4487 151.592 58.2027 151.193 59H144.719L144.485 57.57C145.56 57.1713 146.34 56.9113 146.825 56.79L146.331 42.36C145.517 42.2733 144.832 42.1433 144.277 41.97C144.277 41.3287 144.338 40.7047 144.459 40.098C145.482 39.8207 147.233 39.682 149.711 39.682Z" fill="black"/>
</svg>
