<svg width="200" height="100" viewBox="0 0 200 100" fill="none" xmlns="http://www.w3.org/2000/svg">
<rect x="0.5" y="0.5" width="199" height="99" stroke="black"/>
<path d="M73.774 56.608C76.4607 56.608 77.804 55.646 77.804 53.722C77.804 52.318 77.4747 51.434 76.816 51.07C76.1747 50.6887 74.7187 50.498 72.448 50.498L72.344 56.556C72.9333 56.5907 73.41 56.608 73.774 56.608ZM73.618 48.366C74.9527 48.3313 75.8973 48.158 76.452 47.846C77.0067 47.534 77.284 46.884 77.284 45.896C77.284 44.8907 76.9633 44.2233 76.322 43.894C75.6807 43.5647 74.71 43.4 73.41 43.4H72.474C72.4393 45.584 72.422 47.2307 72.422 48.34L73.618 48.366ZM73.644 59.026H67.222L66.988 57.596C67.8893 57.232 68.6173 56.9807 69.172 56.842C69.172 56.79 69.094 52.2053 68.938 43.088C68.6607 43.0187 67.9413 42.7933 66.78 42.412L66.988 40.826H74.19C76.2527 40.826 77.856 41.2247 79 42.022C80.144 42.8193 80.716 43.972 80.716 45.48C80.716 46.208 80.5167 46.9967 80.118 47.846C79.7367 48.6953 79.2947 49.198 78.792 49.354C79.5547 49.77 80.1527 50.3507 80.586 51.096C81.0193 51.8413 81.236 52.6993 81.236 53.67C81.236 55.2647 80.586 56.556 79.286 57.544C77.986 58.532 76.1053 59.026 73.644 59.026ZM90.047 47.56C89.423 47.56 88.7123 47.716 87.915 48.028C87.6896 48.3747 87.473 48.99 87.265 49.874C87.0743 50.7407 86.979 51.616 86.979 52.5C86.979 54.1293 87.2216 55.2907 87.707 55.984C88.1923 56.66 88.9723 56.998 90.047 56.998C91.139 56.998 91.9276 56.66 92.413 55.984C92.8983 55.2907 93.141 54.112 93.141 52.448C93.141 50.7667 92.8896 49.536 92.387 48.756C91.9016 47.9587 91.1216 47.56 90.047 47.56ZM90.047 45.48C92.075 45.48 93.7043 46.104 94.935 47.352C96.183 48.5827 96.807 50.3073 96.807 52.526C96.807 54.7273 96.1916 56.4087 94.961 57.57C93.7303 58.7313 92.0923 59.312 90.047 59.312C88.0016 59.312 86.3636 58.7313 85.133 57.57C83.9196 56.4087 83.313 54.7273 83.313 52.526C83.313 50.3073 83.9283 48.5827 85.159 47.352C86.3896 46.104 88.019 45.48 90.047 45.48ZM115.477 51.486C115.443 50.2727 115.295 49.432 115.035 48.964C114.793 48.496 114.221 48.262 113.319 48.262C112.435 48.262 111.612 48.4527 110.849 48.834C110.849 51.0527 110.737 53.6093 110.511 56.504L112.565 56.738C112.565 57.4487 112.366 58.2027 111.967 59H105.493L105.259 57.57C106.161 57.2407 106.949 56.9807 107.625 56.79L107.417 51.382C107.383 50.2553 107.244 49.458 107.001 48.99C106.776 48.5047 106.334 48.262 105.675 48.262C105.329 48.262 104.826 48.3227 104.167 48.444C103.509 48.5653 103.006 48.6953 102.659 48.834C102.659 48.886 102.581 51.4427 102.425 56.504L104.453 56.738C104.453 57.5007 104.254 58.2547 103.855 59H97.3812L97.1472 57.57C98.1699 57.1713 98.9499 56.9113 99.4872 56.79L99.1492 48.392C98.4385 48.3227 97.7539 48.1927 97.0952 48.002L97.2252 46.13C97.5199 46.0433 98.1525 45.9393 99.1232 45.818C100.094 45.6967 100.831 45.636 101.333 45.636C101.403 45.688 101.533 45.8527 101.723 46.13C101.914 46.39 102.044 46.598 102.113 46.754C102.703 46.4593 103.413 46.1733 104.245 45.896C105.095 45.6187 105.615 45.48 105.805 45.48C107.643 45.48 108.986 45.9567 109.835 46.91C110.494 46.5633 111.291 46.2427 112.227 45.948C113.163 45.636 113.744 45.48 113.969 45.48C115.616 45.48 116.847 45.87 117.661 46.65C118.476 47.43 118.883 48.73 118.883 50.55C118.883 51.5553 118.805 53.54 118.649 56.504L120.677 56.738C120.677 57.5007 120.478 58.2547 120.079 59H113.631L113.397 57.57C114.212 57.2407 114.957 56.9807 115.633 56.79C115.616 56.3913 115.599 55.828 115.581 55.1C115.547 53.904 115.512 52.6993 115.477 51.486ZM125.922 39.682C126.338 39.682 126.607 39.6907 126.728 39.708C126.728 40.6093 126.616 41.398 126.39 42.074L126.312 46.442C127.924 45.8007 129.034 45.48 129.64 45.48C131.356 45.48 132.622 46.1213 133.436 47.404C134.268 48.6693 134.684 50.316 134.684 52.344C134.684 54.372 134.225 56.0447 133.306 57.362C132.388 58.662 131.053 59.312 129.302 59.312C128.158 59.312 126.954 58.8787 125.688 58.012C125.619 58.4107 125.515 58.7747 125.376 59.104C125.064 59.1387 124.752 59.156 124.44 59.156C124.128 59.156 123.738 59.104 123.27 59L122.724 42.36C121.91 42.2733 121.225 42.1433 120.67 41.97C120.67 41.3287 120.731 40.7047 120.852 40.098C121.858 39.8207 123.548 39.682 125.922 39.682ZM129.198 48.21C128.072 48.21 127.101 48.4093 126.286 48.808C126.252 51.72 126.217 53.9213 126.182 55.412C126.598 55.7587 127.075 56.0707 127.612 56.348C128.15 56.6253 128.609 56.764 128.99 56.764C130.498 56.764 131.252 55.3773 131.252 52.604C131.252 51.4253 131.088 50.4027 130.758 49.536C130.446 48.652 129.926 48.21 129.198 48.21Z" fill="black"/>
</svg>
