<svg width="200" height="100" viewBox="0 0 200 100" fill="none" xmlns="http://www.w3.org/2000/svg">
<rect x="0.5" y="0.5" width="199" height="99" stroke="black"/>
<path d="M20 52.4271L21.5318 57.1416L21.7002 57.6598H22.2451H27.2023L23.1919 60.5736L22.751 60.8939L22.9194 61.4121L24.4513 66.1266L20.4408 63.2129L20 62.8926L19.5592 63.2129L15.5487 66.1266L17.0806 61.4121L17.249 60.8939L16.8081 60.5736L12.7977 57.6598H17.7549H18.2998L18.4682 57.1416L20 52.4271Z" fill="#FFB800" stroke="black" stroke-width="1.5"/>
<path d="M20 12.4271L21.5318 17.1416L21.7002 17.6598H22.2451H27.2023L23.1919 20.5736L22.751 20.8939L22.9194 21.4121L24.4513 26.1266L20.4408 23.2129L20 22.8926L19.5592 23.2129L15.5487 26.1266L17.0806 21.4121L17.249 20.8939L16.8081 20.5736L12.7977 17.6598H17.7549H18.2998L18.4682 17.1416L20 12.4271Z" fill="#FFB800" stroke="black" stroke-width="1.5"/>
<path d="M20 72.4271L21.5318 77.1416L21.7002 77.6598H22.2451H27.2023L23.1919 80.5736L22.751 80.8939L22.9194 81.4121L24.4513 86.1266L20.4408 83.2129L20 82.8926L19.5592 83.2129L15.5487 86.1266L17.0806 81.4121L17.249 80.8939L16.8081 80.5736L12.7977 77.6598H17.7549H18.2998L18.4682 77.1416L20 72.4271Z" fill="#FFB800" stroke="black" stroke-width="1.5"/>
<path d="M20 32.4271L21.5318 37.1416L21.7002 37.6598H22.2451H27.2023L23.1919 40.5736L22.751 40.8939L22.9194 41.4121L24.4513 46.1266L20.4408 43.2129L20 42.8926L19.5592 43.2129L15.5487 46.1266L17.0806 41.4121L17.249 40.8939L16.8081 40.5736L12.7977 37.6598H17.7549H18.2998L18.4682 37.1416L20 32.4271Z" fill="#FFB800" stroke="black" stroke-width="1.5"/>
<path d="M180 62.4271L181.532 67.1416L181.7 67.6598H182.245H187.202L183.192 70.5736L182.751 70.8939L182.919 71.4121L184.451 76.1266L180.441 73.2129L180 72.8926L179.559 73.2129L175.549 76.1266L177.081 71.4121L177.249 70.8939L176.808 70.5736L172.798 67.6598H177.755H178.3L178.468 67.1416L180 62.4271Z" fill="#FFB800" stroke="black" stroke-width="1.5"/>
<path d="M180 22.4271L181.532 27.1416L181.7 27.6598H182.245H187.202L183.192 30.5736L182.751 30.8939L182.919 31.4121L184.451 36.1266L180.441 33.2129L180 32.8926L179.559 33.2129L175.549 36.1266L177.081 31.4121L177.249 30.8939L176.808 30.5736L172.798 27.6598H177.755H178.3L178.468 27.1416L180 22.4271Z" fill="#FFB800" stroke="black" stroke-width="1.5"/>
<path d="M180 42.4271L181.532 47.1416L181.7 47.6598H182.245H187.202L183.192 50.5736L182.751 50.8939L182.919 51.4121L184.451 56.1266L180.441 53.2129L180 52.8926L179.559 53.2129L175.549 56.1266L177.081 51.4121L177.249 50.8939L176.808 50.5736L172.798 47.6598H177.755H178.3L178.468 47.1416L180 42.4271Z" fill="#FFB800" stroke="black" stroke-width="1.5"/>
<path d="M61.268 59.338C58.9107 59.338 57.03 58.5407 55.626 56.946C54.222 55.3513 53.52 52.994 53.52 49.874C53.52 46.754 54.1267 44.414 55.34 42.854C56.5707 41.2767 58.5553 40.488 61.294 40.488C62.4553 40.488 63.5647 40.644 64.622 40.956C65.6967 41.268 66.4247 41.5367 66.806 41.762C67.1873 41.97 67.4907 42.1607 67.716 42.334C67.716 43.4433 67.5773 44.674 67.3 46.026C66.8493 46.234 66.3987 46.338 65.948 46.338C65.5147 46.338 65.142 46.3207 64.83 46.286L64.284 43.582C63.5213 43.374 62.776 43.27 62.048 43.27C61.0253 43.27 59.7513 43.478 58.226 43.894C57.4633 45.4193 57.082 47.274 57.082 49.458C57.082 54.242 58.486 56.634 61.294 56.634C62.698 56.634 63.816 56.4 64.648 55.932C64.6827 55.0307 64.7173 53.644 64.752 51.772L62.568 51.096L62.776 49.51H69.068C69.276 49.8913 69.432 50.576 69.536 51.564C68.9467 51.6853 68.314 51.772 67.638 51.824C67.742 54.06 67.794 55.984 67.794 57.596C67.2913 57.9253 66.3813 58.298 65.064 58.714C63.7467 59.13 62.4813 59.338 61.268 59.338ZM77.7591 56.764C78.3484 56.764 79.5444 56.3567 81.3471 55.542C81.7284 56.0967 82.0144 56.738 82.2051 57.466C81.2518 58.0553 80.3158 58.5147 79.3971 58.844C78.4958 59.156 77.8544 59.312 77.4731 59.312C75.3758 59.312 73.7811 58.7313 72.6891 57.57C71.6144 56.4087 71.0771 54.762 71.0771 52.63C71.0771 50.4807 71.6144 48.756 72.6891 47.456C73.7638 46.1387 75.3584 45.48 77.4731 45.48C79.1544 45.48 80.4371 46.026 81.3211 47.118C82.2051 48.21 82.6471 49.6313 82.6471 51.382C82.6471 51.746 82.4391 52.162 82.0231 52.63L74.5351 52.5C74.5698 53.8867 74.8298 54.944 75.3151 55.672C75.8004 56.4 76.6151 56.764 77.7591 56.764ZM77.2391 47.638C76.5804 47.638 75.9651 47.768 75.3931 48.028C74.9944 48.86 74.7431 49.6313 74.6391 50.342C75.9911 50.29 77.5251 50.2553 79.2411 50.238C79.1544 48.5047 78.4871 47.638 77.2391 47.638ZM92.8058 45.48C94.5391 45.48 95.7958 45.9047 96.5758 46.754C97.3558 47.6033 97.7458 48.7907 97.7458 50.316C97.7458 51.8413 97.6591 53.904 97.4858 56.504L99.5398 56.738C99.5398 57.4487 99.3405 58.2027 98.9418 59H92.4678L92.2338 57.57C93.0485 57.2407 93.8025 56.9807 94.4958 56.79C94.4438 54.7967 94.3918 53.124 94.3398 51.772C94.2878 50.4027 94.1578 49.4753 93.9498 48.99C93.7418 48.5047 93.2825 48.262 92.5718 48.262C91.4971 48.262 90.5351 48.4527 89.6858 48.834C89.6685 49.5793 89.6165 50.8013 89.5298 52.5C89.4605 54.1813 89.4171 55.516 89.3998 56.504L91.4278 56.738C91.4278 57.4487 91.2285 58.2027 90.8298 59H84.3558L84.1218 57.57C84.9885 57.2407 85.7685 56.9807 86.4618 56.79C86.4445 55.75 86.3838 54.3113 86.2798 52.474C86.1931 50.6367 86.1411 49.276 86.1238 48.392C85.4825 48.3227 84.7978 48.1927 84.0698 48.002L84.1998 46.13C85.4131 45.8007 86.7825 45.636 88.3078 45.636C88.4985 45.7573 88.7585 46.13 89.0878 46.754C89.6771 46.4593 90.3965 46.1733 91.2458 45.896C92.0951 45.6187 92.6151 45.48 92.8058 45.48ZM107.085 56.764C107.675 56.764 108.871 56.3567 110.673 55.542C111.055 56.0967 111.341 56.738 111.531 57.466C110.578 58.0553 109.642 58.5147 108.723 58.844C107.822 59.156 107.181 59.312 106.799 59.312C104.702 59.312 103.107 58.7313 102.015 57.57C100.941 56.4087 100.403 54.762 100.403 52.63C100.403 50.4807 100.941 48.756 102.015 47.456C103.09 46.1387 104.685 45.48 106.799 45.48C108.481 45.48 109.763 46.026 110.647 47.118C111.531 48.21 111.973 49.6313 111.973 51.382C111.973 51.746 111.765 52.162 111.349 52.63L103.861 52.5C103.896 53.8867 104.156 54.944 104.641 55.672C105.127 56.4 105.941 56.764 107.085 56.764ZM106.565 47.638C105.907 47.638 105.291 47.768 104.719 48.028C104.321 48.86 104.069 49.6313 103.965 50.342C105.317 50.29 106.851 50.2553 108.567 50.238C108.481 48.5047 107.813 47.638 106.565 47.638ZM121.144 48.288C121.109 48.2013 120.936 48.158 120.624 48.158C120.312 48.158 119.775 48.392 119.012 48.86C118.943 52.2573 118.899 54.8053 118.882 56.504L120.91 56.764C120.91 57.5093 120.711 58.2547 120.312 59H113.838L113.604 57.57C114.679 57.1713 115.459 56.9113 115.944 56.79L115.658 48.366C114.757 48.2967 114.003 48.1667 113.396 47.976L113.578 46.104C114.046 45.896 115.736 45.7573 118.648 45.688C118.804 45.844 118.882 46.1473 118.882 46.598C120.407 45.8527 121.369 45.48 121.768 45.48C122.184 45.48 122.687 45.584 123.276 45.792C123.883 45.9827 124.342 46.1907 124.654 46.416V46.858C124.654 48.2793 124.481 49.5967 124.134 50.81C123.839 50.9313 123.449 50.992 122.964 50.992C122.479 50.992 122.028 50.966 121.612 50.914C121.56 50.6887 121.404 49.8133 121.144 48.288ZM130.042 59.312C128.568 59.312 127.424 59.0087 126.61 58.402C125.812 57.7953 125.414 56.7727 125.414 55.334C125.414 53.9647 125.89 52.8467 126.844 51.98C127.398 51.4773 128.17 51.1827 129.158 51.096C130.146 51.0093 131.506 50.966 133.24 50.966V50.55C133.24 49.4927 133.066 48.7213 132.72 48.236C132.39 47.7333 131.801 47.482 130.952 47.482C130.518 47.482 130.128 47.5687 129.782 47.742L129.158 50.004L127.234 49.952C126.8 49.2933 126.566 48.2447 126.532 46.806C126.878 46.6327 127.693 46.3727 128.976 46.026C130.258 45.662 131.082 45.48 131.446 45.48C133.318 45.48 134.678 45.87 135.528 46.65C136.377 47.4127 136.802 48.6347 136.802 50.316C136.802 51.98 136.724 54.1813 136.568 56.92C137.556 57.0067 138.318 57.154 138.856 57.362C138.873 57.57 138.882 57.8213 138.882 58.116L138.856 58.688C137.608 59.104 136.351 59.312 135.086 59.312C134.756 59.312 134.514 59.3033 134.358 59.286C134.098 58.766 133.942 58.142 133.89 57.414H133.76C133.43 57.726 132.85 58.1247 132.018 58.61C131.203 59.078 130.544 59.312 130.042 59.312ZM128.742 55.49C128.742 56.062 128.915 56.4867 129.262 56.764C129.626 57.024 130.033 57.154 130.484 57.154C130.934 57.154 131.472 56.9547 132.096 56.556C132.72 56.14 133.222 55.7673 133.604 55.438L133.474 53.046C132.104 53.1153 131.073 53.2453 130.38 53.436C129.288 53.6613 128.742 54.346 128.742 55.49ZM144.291 39.682C144.621 39.682 144.829 39.6907 144.915 39.708C144.915 40.6093 144.803 41.398 144.577 42.074C144.56 43.1487 144.534 44.6653 144.499 46.624C144.43 50.9227 144.378 54.216 144.343 56.504L146.371 56.738C146.371 57.4487 146.172 58.2027 145.773 59H139.299L139.065 57.57C140.14 57.1713 140.92 56.9113 141.405 56.79L140.911 42.36C140.097 42.2733 139.412 42.1433 138.857 41.97C138.857 41.3287 138.918 40.7047 139.039 40.098C140.062 39.8207 141.813 39.682 144.291 39.682Z" fill="black"/>
</svg>
