<svg width="200" height="100" viewBox="0 0 200 100" fill="none" xmlns="http://www.w3.org/2000/svg">
<rect x="0.5" y="0.5" width="199" height="99" stroke="black"/>
<path d="M20 32.4271L21.5318 37.1416L21.7002 37.6598H22.2451H27.2023L23.1919 40.5736L22.751 40.8939L22.9194 41.4121L24.4513 46.1266L20.4408 43.2129L20 42.8926L19.5592 43.2129L15.5487 46.1266L17.0806 41.4121L17.249 40.8939L16.8081 40.5736L12.7977 37.6598H17.7549H18.2998L18.4682 37.1416L20 32.4271Z" fill="#FFB800" stroke="black" stroke-width="1.5"/>
<path d="M20 52.4271L21.5318 57.1416L21.7002 57.6598H22.2451H27.2023L23.1919 60.5736L22.751 60.8939L22.9194 61.4121L24.4513 66.1266L20.4408 63.2129L20 62.8926L19.5592 63.2129L15.5487 66.1266L17.0806 61.4121L17.249 60.8939L16.8081 60.5736L12.7977 57.6598H17.7549H18.2998L18.4682 57.1416L20 52.4271Z" fill="#FFB800" stroke="black" stroke-width="1.5"/>
<path d="M180 32.4271L181.532 37.1416L181.7 37.6598H182.245H187.202L183.192 40.5736L182.751 40.8939L182.919 41.4121L184.451 46.1266L180.441 43.2129L180 42.8926L179.559 43.2129L175.549 46.1266L177.081 41.4121L177.249 40.8939L176.808 40.5736L172.798 37.6598H177.755H178.3L178.468 37.1416L180 32.4271Z" fill="#FFB800" stroke="black" stroke-width="1.5"/>
<path d="M180 52.4271L181.532 57.1416L181.7 57.6598H182.245H187.202L183.192 60.5736L182.751 60.8939L182.919 61.4121L184.451 66.1266L180.441 63.2129L180 62.8926L179.559 63.2129L175.549 66.1266L177.081 61.4121L177.249 60.8939L176.808 60.5736L172.798 57.6598H177.755H178.3L178.468 57.1416L180 52.4271Z" fill="#FFB800" stroke="black" stroke-width="1.5"/>
<path d="M67.402 46.676L66.596 46.65L65.842 43.53C64.8367 43.3567 64.0827 43.27 63.58 43.27C62.592 43.27 61.4827 43.4693 60.252 43.868C59.888 44.544 59.602 45.4107 59.394 46.468C59.186 47.5253 59.082 48.522 59.082 49.458C59.082 54.242 60.46 56.634 63.216 56.634C64.3947 56.634 65.3307 56.4607 66.024 56.114L66.57 52.942C67.662 52.942 68.494 53.0027 69.066 53.124C69.3433 55.0133 69.482 56.5473 69.482 57.726C69.066 58.038 68.2253 58.3847 66.96 58.766C65.712 59.1473 64.4813 59.338 63.268 59.338C58.1027 59.338 55.52 56.1487 55.52 49.77C55.52 46.7367 56.144 44.4313 57.392 42.854C58.6573 41.2767 60.668 40.488 63.424 40.488C64.7933 40.488 66.0067 40.6873 67.064 41.086C68 41.4327 68.7973 41.814 69.456 42.23C69.456 43.4087 69.326 44.83 69.066 46.494C68.5807 46.6153 68.026 46.676 67.402 46.676ZM76.0553 59.312C74.582 59.312 73.438 59.0087 72.6233 58.402C71.826 57.7953 71.4273 56.7727 71.4273 55.334C71.4273 53.9647 71.904 52.8467 72.8573 51.98C73.412 51.4773 74.1833 51.1827 75.1713 51.096C76.1593 51.0093 77.52 50.966 79.2533 50.966V50.55C79.2533 49.4927 79.08 48.7213 78.7333 48.236C78.404 47.7333 77.8147 47.482 76.9653 47.482C76.532 47.482 76.142 47.5687 75.7953 47.742L75.1713 50.004L73.2473 49.952C72.814 49.2933 72.58 48.2447 72.5453 46.806C72.892 46.6327 73.7067 46.3727 74.9893 46.026C76.272 45.662 77.0953 45.48 77.4593 45.48C79.3313 45.48 80.692 45.87 81.5413 46.65C82.3907 47.4127 82.8153 48.6347 82.8153 50.316C82.8153 51.98 82.7373 54.1813 82.5813 56.92C83.5693 57.0067 84.332 57.154 84.8693 57.362C84.8867 57.57 84.8953 57.8213 84.8953 58.116L84.8693 58.688C83.6213 59.104 82.3647 59.312 81.0993 59.312C80.77 59.312 80.5273 59.3033 80.3713 59.286C80.1113 58.766 79.9553 58.142 79.9033 57.414H79.7733C79.444 57.726 78.8633 58.1247 78.0313 58.61C77.2167 59.078 76.558 59.312 76.0553 59.312ZM74.7553 55.49C74.7553 56.062 74.9287 56.4867 75.2753 56.764C75.6393 57.024 76.0467 57.154 76.4973 57.154C76.948 57.154 77.4853 56.9547 78.1093 56.556C78.7333 56.14 79.236 55.7673 79.6173 55.438L79.4873 53.046C78.118 53.1153 77.0867 53.2453 76.3933 53.436C75.3013 53.6613 74.7553 54.346 74.7553 55.49ZM93.477 59.312C92.4716 59.312 91.4143 58.9827 90.305 58.324C90.2703 60.1613 90.253 61.548 90.253 62.484L92.281 62.718C92.281 63.4807 92.0816 64.2347 91.683 64.98H85.209L84.975 63.55C86.0843 63.134 86.8643 62.874 87.315 62.77L86.821 48.34C86.0063 48.2707 85.3216 48.1407 84.767 47.95C84.767 47.3087 84.8276 46.6847 84.949 46.078C85.677 45.922 87.289 45.7833 89.785 45.662C89.9236 45.8873 90.0796 46.2687 90.253 46.806C92.0556 45.922 93.243 45.48 93.815 45.48C95.531 45.48 96.805 46.0867 97.637 47.3C98.469 48.496 98.885 50.108 98.885 52.136C98.885 54.164 98.417 55.8713 97.481 57.258C96.5623 58.6273 95.2276 59.312 93.477 59.312ZM90.461 49.094L90.357 55.672C90.7556 56.036 91.2236 56.3567 91.761 56.634C92.3156 56.894 92.7836 57.024 93.165 57.024C94.6903 57.024 95.453 55.5593 95.453 52.63C95.453 51.538 95.3403 50.6627 95.115 50.004C94.907 49.3453 94.6556 48.886 94.361 48.626C94.0836 48.3487 93.7543 48.21 93.373 48.21C92.6103 48.21 91.6396 48.5047 90.461 49.094ZM102.395 59.312L101.823 59.286C101.719 59.0953 101.581 58.74 101.407 58.22C101.234 57.7 101.139 57.31 101.121 57.05C101.035 55.334 100.939 52.3613 100.835 48.132H99.0154L99.0934 46.65C99.492 46.3727 99.9687 46.1213 100.523 45.896L102.629 42.568C103.305 42.6373 103.834 42.8193 104.215 43.114L104.189 45.584C105.281 45.6187 106.295 45.7227 107.231 45.896C107.231 46.5893 107.015 47.3347 106.581 48.132H104.163C104.094 51.772 104.051 54.502 104.033 56.322C104.727 56.3913 105.671 56.5907 106.867 56.92L106.841 58.272C106.547 58.4627 105.888 58.688 104.865 58.948C103.86 59.1907 103.037 59.312 102.395 59.312ZM113.176 59.312C111.703 59.312 110.559 59.0087 109.744 58.402C108.947 57.7953 108.548 56.7727 108.548 55.334C108.548 53.9647 109.025 52.8467 109.978 51.98C110.533 51.4773 111.304 51.1827 112.292 51.096C113.28 51.0093 114.641 50.966 116.374 50.966V50.55C116.374 49.4927 116.201 48.7213 115.854 48.236C115.525 47.7333 114.936 47.482 114.086 47.482C113.653 47.482 113.263 47.5687 112.916 47.742L112.292 50.004L110.368 49.952C109.935 49.2933 109.701 48.2447 109.666 46.806C110.013 46.6327 110.828 46.3727 112.11 46.026C113.393 45.662 114.216 45.48 114.58 45.48C116.452 45.48 117.813 45.87 118.662 46.65C119.512 47.4127 119.936 48.6347 119.936 50.316C119.936 51.98 119.858 54.1813 119.702 56.92C120.69 57.0067 121.453 57.154 121.99 57.362C122.008 57.57 122.016 57.8213 122.016 58.116L121.99 58.688C120.742 59.104 119.486 59.312 118.22 59.312C117.891 59.312 117.648 59.3033 117.492 59.286C117.232 58.766 117.076 58.142 117.024 57.414H116.894C116.565 57.726 115.984 58.1247 115.152 58.61C114.338 59.078 113.679 59.312 113.176 59.312ZM111.876 55.49C111.876 56.062 112.05 56.4867 112.396 56.764C112.76 57.024 113.168 57.154 113.618 57.154C114.069 57.154 114.606 56.9547 115.23 56.556C115.854 56.14 116.357 55.7673 116.738 55.438L116.608 53.046C115.239 53.1153 114.208 53.2453 113.514 53.436C112.422 53.6613 111.876 54.346 111.876 55.49ZM127.712 45.688C128.041 45.688 128.249 45.6967 128.336 45.714C128.336 46.5633 128.189 47.352 127.894 48.08C127.825 51.824 127.781 54.632 127.764 56.504L129.792 56.738C129.792 57.4487 129.593 58.2027 129.194 59H122.72L122.486 57.57C123.561 57.1713 124.341 56.9113 124.826 56.79L124.54 48.366C123.517 48.262 122.763 48.132 122.278 47.976C122.278 47.5427 122.339 46.9187 122.46 46.104C123.483 45.8267 125.233 45.688 127.712 45.688ZM127.712 40.774C127.868 41.554 127.946 42.152 127.946 42.568C127.946 42.9667 127.911 43.4173 127.842 43.92C127.149 44.076 126.559 44.154 126.074 44.154C125.606 44.154 125.034 44.128 124.358 44.076C124.202 43.296 124.124 42.7067 124.124 42.308C124.124 41.892 124.159 41.4327 124.228 40.93C124.921 40.774 125.502 40.696 125.97 40.696C126.455 40.696 127.036 40.722 127.712 40.774ZM138.96 45.48C140.693 45.48 141.95 45.9047 142.73 46.754C143.51 47.6033 143.9 48.7907 143.9 50.316C143.9 51.8413 143.813 53.904 143.64 56.504L145.694 56.738C145.694 57.4487 145.495 58.2027 145.096 59H138.622L138.388 57.57C139.203 57.2407 139.957 56.9807 140.65 56.79C140.598 54.7967 140.546 53.124 140.494 51.772C140.442 50.4027 140.312 49.4753 140.104 48.99C139.896 48.5047 139.437 48.262 138.726 48.262C137.651 48.262 136.689 48.4527 135.84 48.834C135.823 49.5793 135.771 50.8013 135.684 52.5C135.615 54.1813 135.571 55.516 135.554 56.504L137.582 56.738C137.582 57.4487 137.383 58.2027 136.984 59H130.51L130.276 57.57C131.143 57.2407 131.923 56.9807 132.616 56.79C132.599 55.75 132.538 54.3113 132.434 52.474C132.347 50.6367 132.295 49.276 132.278 48.392C131.637 48.3227 130.952 48.1927 130.224 48.002L130.354 46.13C131.567 45.8007 132.937 45.636 134.462 45.636C134.653 45.7573 134.913 46.13 135.242 46.754C135.831 46.4593 136.551 46.1733 137.4 45.896C138.249 45.6187 138.769 45.48 138.96 45.48Z" fill="black"/>
</svg>
