<svg width="200" height="100" viewBox="0 0 200 100" fill="none" xmlns="http://www.w3.org/2000/svg">
<rect x="0.5" y="0.5" width="199" height="99" stroke="black"/>
<path d="M20 32.4271L21.5318 37.1416L21.7002 37.6598H22.2451H27.2023L23.1919 40.5736L22.751 40.8939L22.9194 41.4121L24.4513 46.1266L20.4408 43.2129L20 42.8926L19.5592 43.2129L15.5487 46.1266L17.0806 41.4121L17.249 40.8939L16.8081 40.5736L12.7977 37.6598H17.7549H18.2998L18.4682 37.1416L20 32.4271Z" fill="#FFB800" stroke="black" stroke-width="1.5"/>
<path d="M20 52.4271L21.5318 57.1416L21.7002 57.6598H22.2451H27.2023L23.1919 60.5736L22.751 60.8939L22.9194 61.4121L24.4513 66.1266L20.4408 63.2129L20 62.8926L19.5592 63.2129L15.5487 66.1266L17.0806 61.4121L17.249 60.8939L16.8081 60.5736L12.7977 57.6598H17.7549H18.2998L18.4682 57.1416L20 52.4271Z" fill="#FFB800" stroke="black" stroke-width="1.5"/>
<path d="M180 42.4271L181.532 47.1416L181.7 47.6598H182.245H187.202L183.192 50.5736L182.751 50.8939L182.919 51.4121L184.451 56.1266L180.441 53.2129L180 52.8926L179.559 53.2129L175.549 56.1266L177.081 51.4121L177.249 50.8939L176.808 50.5736L172.798 47.6598H177.755H178.3L178.468 47.1416L180 42.4271Z" fill="#FFB800" stroke="black" stroke-width="1.5"/>
<path d="M47.142 54.268C47.558 54.1987 47.87 54.164 48.078 54.164C48.3033 54.164 48.78 54.2247 49.508 54.346C49.5773 54.4847 49.6727 54.9267 49.794 55.672C49.9327 56.4173 50.002 57.024 50.002 57.492C50.002 57.9427 49.95 58.4453 49.846 59H37.236L37.002 57.57C37.8513 57.2233 38.5793 56.972 39.186 56.816C39.186 56.764 39.108 52.1793 38.952 43.062L36.794 42.386L37.002 40.8H43.762C43.7447 40.8 43.7447 40.8173 43.762 40.852C43.7967 40.8867 43.8313 40.9647 43.866 41.086C43.918 41.19 43.97 41.32 44.022 41.476C44.126 41.7533 44.1953 42.2127 44.23 42.854C43.346 42.9927 42.7653 43.0793 42.488 43.114C42.4187 49.094 42.3753 53.5573 42.358 56.504H46.57L47.142 54.268ZM56.6007 45.688C56.9301 45.688 57.1381 45.6967 57.2247 45.714C57.2247 46.5633 57.0774 47.352 56.7827 48.08C56.7134 51.824 56.6701 54.632 56.6527 56.504L58.6807 56.738C58.6807 57.4487 58.4814 58.2027 58.0827 59H51.6087L51.3747 57.57C52.4494 57.1713 53.2294 56.9113 53.7147 56.79L53.4287 48.366C52.4061 48.262 51.6521 48.132 51.1667 47.976C51.1667 47.5427 51.2274 46.9187 51.3487 46.104C52.3714 45.8267 54.1221 45.688 56.6007 45.688ZM56.6007 40.774C56.7567 41.554 56.8347 42.152 56.8347 42.568C56.8347 42.9667 56.8001 43.4173 56.7307 43.92C56.0374 44.076 55.4481 44.154 54.9627 44.154C54.4947 44.154 53.9227 44.128 53.2467 44.076C53.0907 43.296 53.0127 42.7067 53.0127 42.308C53.0127 41.892 53.0474 41.4327 53.1167 40.93C53.8101 40.774 54.3907 40.696 54.8587 40.696C55.3441 40.696 55.9247 40.722 56.6007 40.774ZM66.1068 56.764C66.6961 56.764 67.8921 56.3567 69.6948 55.542C70.0761 56.0967 70.3621 56.738 70.5528 57.466C69.5994 58.0553 68.6634 58.5147 67.7448 58.844C66.8434 59.156 66.2021 59.312 65.8208 59.312C63.7234 59.312 62.1288 58.7313 61.0368 57.57C59.9621 56.4087 59.4248 54.762 59.4248 52.63C59.4248 50.4807 59.9621 48.756 61.0368 47.456C62.1114 46.1387 63.7061 45.48 65.8208 45.48C67.5021 45.48 68.7848 46.026 69.6688 47.118C70.5528 48.21 70.9948 49.6313 70.9948 51.382C70.9948 51.746 70.7868 52.162 70.3708 52.63L62.8828 52.5C62.9174 53.8867 63.1774 54.944 63.6628 55.672C64.1481 56.4 64.9628 56.764 66.1068 56.764ZM65.5868 47.638C64.9281 47.638 64.3128 47.768 63.7408 48.028C63.3421 48.86 63.0908 49.6313 62.9868 50.342C64.3388 50.29 65.8728 50.2553 67.5888 50.238C67.5021 48.5047 66.8348 47.638 65.5868 47.638ZM84.9235 45.688C85.2528 45.688 85.4608 45.6967 85.5475 45.714C85.5475 46.598 85.4001 47.3607 85.1055 48.002C85.0015 51.8153 84.9148 54.632 84.8455 56.452C85.6255 56.5213 86.3101 56.6513 86.8995 56.842L86.8475 58.662C85.7901 58.9913 84.8801 59.156 84.1175 59.156C83.3548 59.156 82.8348 59.1387 82.5575 59.104C82.3495 58.688 82.1761 58.272 82.0375 57.856C80.5988 58.8267 79.5588 59.312 78.9175 59.312C75.8148 59.312 74.2635 57.7433 74.2635 54.606C74.2635 53.7567 74.3328 51.668 74.4715 48.34C73.5528 48.34 72.7121 48.2187 71.9495 47.976C71.9495 47.5427 72.0101 46.9187 72.1315 46.104C73.1541 45.8267 74.9048 45.688 77.3835 45.688C77.7128 45.688 77.9208 45.6967 78.0075 45.714C78.0075 46.5633 77.8601 47.352 77.5655 48.08V53.332C77.5655 54.4413 77.6781 55.256 77.9035 55.776C78.1461 56.2787 78.6488 56.53 79.4115 56.53C80.1915 56.53 80.9888 56.2613 81.8035 55.724L81.6475 48.34C80.8848 48.3053 80.1655 48.184 79.4895 47.976C79.4895 47.5427 79.5501 46.9187 79.6715 46.104C80.6941 45.8267 82.4448 45.688 84.9235 45.688ZM91.1043 59.312L90.5323 59.286C90.4283 59.0953 90.2897 58.74 90.1163 58.22C89.943 57.7 89.8477 57.31 89.8303 57.05C89.7437 55.334 89.6483 52.3613 89.5443 48.132H87.7243L87.8023 46.65C88.201 46.3727 88.6777 46.1213 89.2323 45.896L91.3383 42.568C92.0143 42.6373 92.543 42.8193 92.9243 43.114L92.8983 45.584C93.9903 45.6187 95.0043 45.7227 95.9403 45.896C95.9403 46.5893 95.7237 47.3347 95.2903 48.132H92.8723C92.803 51.772 92.7597 54.502 92.7423 56.322C93.4357 56.3913 94.3803 56.5907 95.5763 56.92L95.5503 58.272C95.2557 58.4627 94.597 58.688 93.5743 58.948C92.569 59.1907 91.7457 59.312 91.1043 59.312ZM103.913 56.764C104.503 56.764 105.699 56.3567 107.501 55.542C107.883 56.0967 108.169 56.738 108.359 57.466C107.406 58.0553 106.47 58.5147 105.551 58.844C104.65 59.156 104.009 59.312 103.627 59.312C101.53 59.312 99.9354 58.7313 98.8434 57.57C97.7687 56.4087 97.2314 54.762 97.2314 52.63C97.2314 50.4807 97.7687 48.756 98.8434 47.456C99.9181 46.1387 101.513 45.48 103.627 45.48C105.309 45.48 106.591 46.026 107.475 47.118C108.359 48.21 108.801 49.6313 108.801 51.382C108.801 51.746 108.593 52.162 108.177 52.63L100.689 52.5C100.724 53.8867 100.984 54.944 101.469 55.672C101.955 56.4 102.769 56.764 103.913 56.764ZM103.393 47.638C102.735 47.638 102.119 47.768 101.547 48.028C101.149 48.86 100.897 49.6313 100.793 50.342C102.145 50.29 103.679 50.2553 105.395 50.238C105.309 48.5047 104.641 47.638 103.393 47.638ZM118.96 45.48C120.693 45.48 121.95 45.9047 122.73 46.754C123.51 47.6033 123.9 48.7907 123.9 50.316C123.9 51.8413 123.813 53.904 123.64 56.504L125.694 56.738C125.694 57.4487 125.495 58.2027 125.096 59H118.622L118.388 57.57C119.203 57.2407 119.957 56.9807 120.65 56.79C120.598 54.7967 120.546 53.124 120.494 51.772C120.442 50.4027 120.312 49.4753 120.104 48.99C119.896 48.5047 119.437 48.262 118.726 48.262C117.651 48.262 116.689 48.4527 115.84 48.834C115.823 49.5793 115.771 50.8013 115.684 52.5C115.615 54.1813 115.571 55.516 115.554 56.504L117.582 56.738C117.582 57.4487 117.383 58.2027 116.984 59H110.51L110.276 57.57C111.143 57.2407 111.923 56.9807 112.616 56.79C112.599 55.75 112.538 54.3113 112.434 52.474C112.347 50.6367 112.295 49.276 112.278 48.392C111.637 48.3227 110.952 48.1927 110.224 48.002L110.354 46.13C111.567 45.8007 112.937 45.636 114.462 45.636C114.653 45.7573 114.913 46.13 115.242 46.754C115.831 46.4593 116.551 46.1733 117.4 45.896C118.249 45.6187 118.769 45.48 118.96 45.48ZM131.212 59.312C129.738 59.312 128.594 59.0087 127.78 58.402C126.982 57.7953 126.584 56.7727 126.584 55.334C126.584 53.9647 127.06 52.8467 128.014 51.98C128.568 51.4773 129.34 51.1827 130.328 51.096C131.316 51.0093 132.676 50.966 134.41 50.966V50.55C134.41 49.4927 134.236 48.7213 133.89 48.236C133.56 47.7333 132.971 47.482 132.122 47.482C131.688 47.482 131.298 47.5687 130.952 47.742L130.328 50.004L128.404 49.952C127.97 49.2933 127.736 48.2447 127.702 46.806C128.048 46.6327 128.863 46.3727 130.146 46.026C131.428 45.662 132.252 45.48 132.616 45.48C134.488 45.48 135.848 45.87 136.698 46.65C137.547 47.4127 137.972 48.6347 137.972 50.316C137.972 51.98 137.894 54.1813 137.738 56.92C138.726 57.0067 139.488 57.154 140.026 57.362C140.043 57.57 140.052 57.8213 140.052 58.116L140.026 58.688C138.778 59.104 137.521 59.312 136.256 59.312C135.926 59.312 135.684 59.3033 135.528 59.286C135.268 58.766 135.112 58.142 135.06 57.414H134.93C134.6 57.726 134.02 58.1247 133.188 58.61C132.373 59.078 131.714 59.312 131.212 59.312ZM129.912 55.49C129.912 56.062 130.085 56.4867 130.432 56.764C130.796 57.024 131.203 57.154 131.654 57.154C132.104 57.154 132.642 56.9547 133.266 56.556C133.89 56.14 134.392 55.7673 134.774 55.438L134.644 53.046C133.274 53.1153 132.243 53.2453 131.55 53.436C130.458 53.6613 129.912 54.346 129.912 55.49ZM148.997 45.48C150.731 45.48 151.987 45.9047 152.767 46.754C153.547 47.6033 153.937 48.7907 153.937 50.316C153.937 51.8413 153.851 53.904 153.677 56.504L155.731 56.738C155.731 57.4487 155.532 58.2027 155.133 59H148.659L148.425 57.57C149.24 57.2407 149.994 56.9807 150.687 56.79C150.635 54.7967 150.583 53.124 150.531 51.772C150.479 50.4027 150.349 49.4753 150.141 48.99C149.933 48.5047 149.474 48.262 148.763 48.262C147.689 48.262 146.727 48.4527 145.877 48.834C145.86 49.5793 145.808 50.8013 145.721 52.5C145.652 54.1813 145.609 55.516 145.591 56.504L147.619 56.738C147.619 57.4487 147.42 58.2027 147.021 59H140.547L140.313 57.57C141.18 57.2407 141.96 56.9807 142.653 56.79C142.636 55.75 142.575 54.3113 142.471 52.474C142.385 50.6367 142.333 49.276 142.315 48.392C141.674 48.3227 140.989 48.1927 140.261 48.002L140.391 46.13C141.605 45.8007 142.974 45.636 144.499 45.636C144.69 45.7573 144.95 46.13 145.279 46.754C145.869 46.4593 146.588 46.1733 147.437 45.896C148.287 45.6187 148.807 45.48 148.997 45.48ZM159.507 59.312L158.935 59.286C158.831 59.0953 158.692 58.74 158.519 58.22C158.345 57.7 158.25 57.31 158.233 57.05C158.146 55.334 158.051 52.3613 157.947 48.132H156.127L156.205 46.65C156.603 46.3727 157.08 46.1213 157.635 45.896L159.741 42.568C160.417 42.6373 160.945 42.8193 161.327 43.114L161.301 45.584C162.393 45.6187 163.407 45.7227 164.343 45.896C164.343 46.5893 164.126 47.3347 163.693 48.132H161.275C161.205 51.772 161.162 54.502 161.145 56.322C161.838 56.3913 162.783 56.5907 163.979 56.92L163.953 58.272C163.658 58.4627 162.999 58.688 161.977 58.948C160.971 59.1907 160.148 59.312 159.507 59.312Z" fill="black"/>
</svg>
