<svg width="200" height="100" viewBox="0 0 200 100" fill="none" xmlns="http://www.w3.org/2000/svg">
<rect x="0.5" y="0.5" width="199" height="99" stroke="black"/>
<path d="M95.312 56.816L95.208 50.68H88.396C88.3613 53.28 88.344 55.2213 88.344 56.504L90.138 56.738C90.138 57.4487 89.9387 58.2027 89.54 59H83.222L82.988 57.57C83.9587 57.1713 84.6867 56.92 85.172 56.816C85.172 56.764 85.094 52.1793 84.938 43.062L82.78 42.386L82.988 40.8H89.722C89.9993 41.268 90.164 41.9527 90.216 42.854C89.332 42.9927 88.7513 43.0793 88.474 43.114C88.4393 45.3673 88.422 47.0573 88.422 48.184H95.156L95.078 43.062L92.92 42.386L93.128 40.8H99.862C100.139 41.268 100.304 41.9527 100.356 42.854C99.472 42.9927 98.8913 43.0793 98.614 43.114L98.484 56.504L100.278 56.738C100.278 57.4487 100.079 58.2027 99.68 59H93.362L93.128 57.57C94.0987 57.1713 94.8267 56.92 95.312 56.816ZM108.81 59.884C109.364 59.884 109.988 59.9793 110.682 60.17C111.375 60.3607 112.077 60.6033 112.788 60.898C113.498 61.21 113.949 61.392 114.14 61.444C114.954 61.704 116.211 61.834 117.91 61.834C117.84 62.4927 117.728 63.0647 117.572 63.55C117.433 64.0353 117.242 64.434 117 64.746C115.7 64.6767 114.547 64.4513 113.542 64.07C113.264 63.966 112.762 63.7493 112.034 63.42C111.306 63.108 110.664 62.8653 110.11 62.692C109.555 62.536 109.026 62.458 108.524 62.458C108.038 62.458 107.345 62.562 106.444 62.77C105.56 62.9953 105.109 63.108 105.092 63.108C104.468 62.5707 104.156 61.9727 104.156 61.314C105.213 60.8287 106.114 60.4647 106.86 60.222C107.622 59.9967 108.272 59.884 108.81 59.884ZM109.928 56.556C112.805 56.556 114.244 54.346 114.244 49.926C114.244 45.506 112.805 43.296 109.928 43.296C108.68 43.296 107.588 43.4867 106.652 43.868C105.854 45.532 105.456 47.4647 105.456 49.666C105.456 51.85 105.785 53.5487 106.444 54.762C107.102 55.958 108.264 56.556 109.928 56.556ZM109.928 40.488C112.822 40.488 114.859 41.2507 116.038 42.776C117.216 44.284 117.806 46.598 117.806 49.718C117.806 51.6767 117.554 53.3493 117.052 54.736C116.549 56.1227 115.7 57.232 114.504 58.064C113.308 58.896 111.782 59.312 109.928 59.312C107.102 59.312 105.048 58.5233 103.766 56.946C102.5 55.3687 101.868 53.072 101.868 50.056C101.868 43.6773 104.554 40.488 109.928 40.488Z" fill="black"/>
</svg>
