<svg width="200" height="100" viewBox="0 0 200 100" fill="none" xmlns="http://www.w3.org/2000/svg">
<rect x="0.5" y="0.5" width="199" height="99" stroke="black"/>
<path d="M20 52.4271L21.5318 57.1416L21.7002 57.6598H22.2451H27.2023L23.1919 60.5736L22.751 60.8939L22.9194 61.4121L24.4513 66.1266L20.4408 63.2129L20 62.8926L19.5592 63.2129L15.5487 66.1266L17.0806 61.4121L17.249 60.8939L16.8081 60.5736L12.7977 57.6598H17.7549H18.2998L18.4682 57.1416L20 52.4271Z" fill="#FFB800" stroke="black" stroke-width="1.5"/>
<path d="M20 12.4271L21.5318 17.1416L21.7002 17.6598H22.2451H27.2023L23.1919 20.5736L22.751 20.8939L22.9194 21.4121L24.4513 26.1266L20.4408 23.2129L20 22.8926L19.5592 23.2129L15.5487 26.1266L17.0806 21.4121L17.249 20.8939L16.8081 20.5736L12.7977 17.6598H17.7549H18.2998L18.4682 17.1416L20 12.4271Z" fill="#FFB800" stroke="black" stroke-width="1.5"/>
<path d="M20 72.4271L21.5318 77.1416L21.7002 77.6598H22.2451H27.2023L23.1919 80.5736L22.751 80.8939L22.9194 81.4121L24.4513 86.1266L20.4408 83.2129L20 82.8926L19.5592 83.2129L15.5487 86.1266L17.0806 81.4121L17.249 80.8939L16.8081 80.5736L12.7977 77.6598H17.7549H18.2998L18.4682 77.1416L20 72.4271Z" fill="#FFB800" stroke="black" stroke-width="1.5"/>
<path d="M20 32.4271L21.5318 37.1416L21.7002 37.6598H22.2451H27.2023L23.1919 40.5736L22.751 40.8939L22.9194 41.4121L24.4513 46.1266L20.4408 43.2129L20 42.8926L19.5592 43.2129L15.5487 46.1266L17.0806 41.4121L17.249 40.8939L16.8081 40.5736L12.7977 37.6598H17.7549H18.2998L18.4682 37.1416L20 32.4271Z" fill="#FFB800" stroke="black" stroke-width="1.5"/>
<path d="M180 52.4271L181.532 57.1416L181.7 57.6598H182.245H187.202L183.192 60.5736L182.751 60.8939L182.919 61.4121L184.451 66.1266L180.441 63.2129L180 62.8926L179.559 63.2129L175.549 66.1266L177.081 61.4121L177.249 60.8939L176.808 60.5736L172.798 57.6598H177.755H178.3L178.468 57.1416L180 52.4271Z" fill="#FFB800" stroke="black" stroke-width="1.5"/>
<path d="M180 12.4271L181.532 17.1416L181.7 17.6598H182.245H187.202L183.192 20.5736L182.751 20.8939L182.919 21.4121L184.451 26.1266L180.441 23.2129L180 22.8926L179.559 23.2129L175.549 26.1266L177.081 21.4121L177.249 20.8939L176.808 20.5736L172.798 17.6598H177.755H178.3L178.468 17.1416L180 12.4271Z" fill="#FFB800" stroke="black" stroke-width="1.5"/>
<path d="M180 72.4271L181.532 77.1416L181.7 77.6598H182.245H187.202L183.192 80.5736L182.751 80.8939L182.919 81.4121L184.451 86.1266L180.441 83.2129L180 82.8926L179.559 83.2129L175.549 86.1266L177.081 81.4121L177.249 80.8939L176.808 80.5736L172.798 77.6598H177.755H178.3L178.468 77.1416L180 72.4271Z" fill="#FFB800" stroke="black" stroke-width="1.5"/>
<path d="M180 32.4271L181.532 37.1416L181.7 37.6598H182.245H187.202L183.192 40.5736L182.751 40.8939L182.919 41.4121L184.451 46.1266L180.441 43.2129L180 42.8926L179.559 43.2129L175.549 46.1266L177.081 41.4121L177.249 40.8939L176.808 40.5736L172.798 37.6598H177.755H178.3L178.468 37.1416L180 32.4271Z" fill="#FFB800" stroke="black" stroke-width="1.5"/>
<path d="M52.216 40.8C54.4173 40.8 56.0553 41.1813 57.13 41.944C58.2047 42.7067 58.742 44.0933 58.742 46.104C58.742 47.7853 58.222 49.1893 57.182 50.316C56.142 51.4253 54.478 51.98 52.19 51.98C51.4447 51.98 50.8553 51.9713 50.422 51.954L50.37 56.53L52.268 56.738C52.268 57.5007 52.0687 58.2547 51.67 59H45.248L45.014 57.57C45.9153 57.206 46.6433 56.9547 47.198 56.816C47.198 56.764 47.12 52.1793 46.964 43.062C46.6867 42.9927 45.9673 42.7673 44.806 42.386L45.014 40.8H52.216ZM51.644 49.51C52.8053 49.4927 53.7067 49.172 54.348 48.548C54.9893 47.924 55.31 47.118 55.31 46.13C55.31 45.142 55.024 44.44 54.452 44.024C53.8973 43.5907 53.022 43.374 51.826 43.374C51.358 43.374 50.916 43.3827 50.5 43.4C50.4653 46.1387 50.448 48.184 50.448 49.536L51.644 49.51ZM67.4311 48.288C67.3964 48.2013 67.2231 48.158 66.9111 48.158C66.5991 48.158 66.0617 48.392 65.2991 48.86C65.2297 52.2573 65.1864 54.8053 65.1691 56.504L67.1971 56.764C67.1971 57.5093 66.9977 58.2547 66.5991 59H60.1251L59.8911 57.57C60.9657 57.1713 61.7457 56.9113 62.2311 56.79L61.9451 48.366C61.0437 48.2967 60.2897 48.1667 59.6831 47.976L59.8651 46.104C60.3331 45.896 62.0231 45.7573 64.9351 45.688C65.0911 45.844 65.1691 46.1473 65.1691 46.598C66.6944 45.8527 67.6564 45.48 68.0551 45.48C68.4711 45.48 68.9737 45.584 69.5631 45.792C70.1697 45.9827 70.6291 46.1907 70.9411 46.416V46.858C70.9411 48.2793 70.7677 49.5967 70.4211 50.81C70.1264 50.9313 69.7364 50.992 69.2511 50.992C68.7657 50.992 68.3151 50.966 67.8991 50.914C67.8471 50.6887 67.6911 49.8133 67.4311 48.288ZM78.3568 56.764C78.9461 56.764 80.1421 56.3567 81.9448 55.542C82.3261 56.0967 82.6121 56.738 82.8028 57.466C81.8494 58.0553 80.9134 58.5147 79.9948 58.844C79.0934 59.156 78.4521 59.312 78.0708 59.312C75.9734 59.312 74.3788 58.7313 73.2868 57.57C72.2121 56.4087 71.6748 54.762 71.6748 52.63C71.6748 50.4807 72.2121 48.756 73.2868 47.456C74.3614 46.1387 75.9561 45.48 78.0708 45.48C79.7521 45.48 81.0348 46.026 81.9188 47.118C82.8028 48.21 83.2448 49.6313 83.2448 51.382C83.2448 51.746 83.0368 52.162 82.6208 52.63L75.1328 52.5C75.1674 53.8867 75.4274 54.944 75.9128 55.672C76.3981 56.4 77.2128 56.764 78.3568 56.764ZM77.8368 47.638C77.1781 47.638 76.5628 47.768 75.9908 48.028C75.5921 48.86 75.3408 49.6313 75.2368 50.342C76.5888 50.29 78.1228 50.2553 79.8388 50.238C79.7521 48.5047 79.0848 47.638 77.8368 47.638ZM94.3135 46.598L94.3395 47.404C94.3395 48.756 94.2355 49.64 94.0275 50.056C93.4555 50.264 92.6581 50.368 91.6355 50.368L90.8035 47.742C90.5781 47.6553 90.2661 47.612 89.8675 47.612C89.4688 47.612 89.1395 47.7333 88.8795 47.976C88.6368 48.2187 88.5155 48.5047 88.5155 48.834C88.5155 49.1633 88.6455 49.4667 88.9055 49.744C89.1655 50.004 89.4341 50.212 89.7115 50.368C89.9888 50.524 90.3875 50.732 90.9075 50.992C91.4448 51.2347 91.8435 51.4253 92.1035 51.564C92.3808 51.7027 92.7275 51.9107 93.1435 52.188C93.5768 52.4653 93.9061 52.7253 94.1315 52.968C94.6861 53.6267 94.9635 54.346 94.9635 55.126C94.9635 56.4607 94.4521 57.492 93.4295 58.22C92.4241 58.948 91.1848 59.312 89.7115 59.312C88.9315 59.312 88.0735 59.1733 87.1375 58.896C86.2188 58.6187 85.4388 58.246 84.7975 57.778C84.7975 56.53 84.9188 55.3687 85.1615 54.294C85.8548 54.2073 86.4181 54.164 86.8515 54.164C87.2848 54.164 87.5795 54.1727 87.7355 54.19L88.0475 56.712C88.4808 56.868 89.0008 56.946 89.6075 56.946C90.2141 56.946 90.6908 56.8247 91.0375 56.582C91.4015 56.3393 91.5835 56.0013 91.5835 55.568C91.5835 55.1173 91.3841 54.7447 90.9855 54.45C90.5868 54.1553 90.0408 53.852 89.3475 53.54C88.6541 53.2107 88.1168 52.942 87.7355 52.734C87.3541 52.5087 86.9468 52.2227 86.5135 51.876C85.6295 51.2 85.1875 50.368 85.1875 49.38C85.1875 48.1493 85.6121 47.196 86.4615 46.52C87.3281 45.8267 88.4895 45.48 89.9455 45.48C91.4015 45.48 92.8575 45.8527 94.3135 46.598ZM101.909 45.688C102.239 45.688 102.447 45.6967 102.533 45.714C102.533 46.5633 102.386 47.352 102.091 48.08C102.022 51.824 101.979 54.632 101.961 56.504L103.989 56.738C103.989 57.4487 103.79 58.2027 103.391 59H96.9173L96.6833 57.57C97.758 57.1713 98.538 56.9113 99.0233 56.79L98.7373 48.366C97.7146 48.262 96.9606 48.132 96.4753 47.976C96.4753 47.5427 96.536 46.9187 96.6573 46.104C97.68 45.8267 99.4306 45.688 101.909 45.688ZM101.909 40.774C102.065 41.554 102.143 42.152 102.143 42.568C102.143 42.9667 102.109 43.4173 102.039 43.92C101.346 44.076 100.757 44.154 100.271 44.154C99.8033 44.154 99.2313 44.128 98.5553 44.076C98.3993 43.296 98.3213 42.7067 98.3213 42.308C98.3213 41.892 98.356 41.4327 98.4253 40.93C99.1186 40.774 99.6993 40.696 100.167 40.696C100.653 40.696 101.233 40.722 101.909 40.774ZM116.147 39.682C116.477 39.682 116.685 39.6907 116.771 39.708C116.771 40.6093 116.659 41.398 116.433 42.074C116.364 43.946 116.277 46.6153 116.173 50.082C116.087 53.5313 116.026 55.8107 115.991 56.92C117.014 57.0587 117.777 57.206 118.279 57.362V58.61C117.187 59.078 115.688 59.312 113.781 59.312C113.677 59.1213 113.539 58.6533 113.365 57.908C111.771 58.7747 110.618 59.2427 109.907 59.312C108.139 59.312 106.813 58.6707 105.929 57.388C105.063 56.1053 104.629 54.4587 104.629 52.448C104.629 50.42 105.071 48.7213 105.955 47.352C106.839 45.9653 108.148 45.272 109.881 45.272C110.835 45.272 111.84 45.5667 112.897 46.156L112.767 42.36C111.953 42.2733 111.268 42.1433 110.713 41.97C110.713 41.5367 110.774 40.9127 110.895 40.098C111.918 39.8207 113.669 39.682 116.147 39.682ZM110.297 47.82C108.807 47.82 108.061 49.2587 108.061 52.136C108.061 53.7827 108.356 55.022 108.945 55.854C109.275 56.3393 109.699 56.582 110.219 56.582C111.103 56.582 112.1 56.2787 113.209 55.672L112.975 48.964C111.987 48.2013 111.095 47.82 110.297 47.82ZM126.117 56.764C126.706 56.764 127.902 56.3567 129.705 55.542C130.086 56.0967 130.372 56.738 130.563 57.466C129.609 58.0553 128.673 58.5147 127.755 58.844C126.853 59.156 126.212 59.312 125.831 59.312C123.733 59.312 122.139 58.7313 121.047 57.57C119.972 56.4087 119.435 54.762 119.435 52.63C119.435 50.4807 119.972 48.756 121.047 47.456C122.121 46.1387 123.716 45.48 125.831 45.48C127.512 45.48 128.795 46.026 129.679 47.118C130.563 48.21 131.005 49.6313 131.005 51.382C131.005 51.746 130.797 52.162 130.381 52.63L122.893 52.5C122.927 53.8867 123.187 54.944 123.673 55.672C124.158 56.4 124.973 56.764 126.117 56.764ZM125.597 47.638C124.938 47.638 124.323 47.768 123.751 48.028C123.352 48.86 123.101 49.6313 122.997 50.342C124.349 50.29 125.883 50.2553 127.599 50.238C127.512 48.5047 126.845 47.638 125.597 47.638ZM141.163 45.48C142.897 45.48 144.153 45.9047 144.933 46.754C145.713 47.6033 146.103 48.7907 146.103 50.316C146.103 51.8413 146.017 53.904 145.843 56.504L147.897 56.738C147.897 57.4487 147.698 58.2027 147.299 59H140.825L140.591 57.57C141.406 57.2407 142.16 56.9807 142.853 56.79C142.801 54.7967 142.749 53.124 142.697 51.772C142.645 50.4027 142.515 49.4753 142.307 48.99C142.099 48.5047 141.64 48.262 140.929 48.262C139.855 48.262 138.893 48.4527 138.043 48.834C138.026 49.5793 137.974 50.8013 137.887 52.5C137.818 54.1813 137.775 55.516 137.757 56.504L139.785 56.738C139.785 57.4487 139.586 58.2027 139.187 59H132.713L132.479 57.57C133.346 57.2407 134.126 56.9807 134.819 56.79C134.802 55.75 134.741 54.3113 134.637 52.474C134.551 50.6367 134.499 49.276 134.481 48.392C133.84 48.3227 133.155 48.1927 132.427 48.002L132.557 46.13C133.771 45.8007 135.14 45.636 136.665 45.636C136.856 45.7573 137.116 46.13 137.445 46.754C138.035 46.4593 138.754 46.1733 139.603 45.896C140.453 45.6187 140.973 45.48 141.163 45.48ZM151.673 59.312L151.101 59.286C150.997 59.0953 150.858 58.74 150.685 58.22C150.511 57.7 150.416 57.31 150.399 57.05C150.312 55.334 150.217 52.3613 150.113 48.132H148.293L148.371 46.65C148.769 46.3727 149.246 46.1213 149.801 45.896L151.907 42.568C152.583 42.6373 153.111 42.8193 153.493 43.114L153.467 45.584C154.559 45.6187 155.573 45.7227 156.509 45.896C156.509 46.5893 156.292 47.3347 155.859 48.132H153.441C153.371 51.772 153.328 54.502 153.311 56.322C154.004 56.3913 154.949 56.5907 156.145 56.92L156.119 58.272C155.824 58.4627 155.165 58.688 154.143 58.948C153.137 59.1907 152.314 59.312 151.673 59.312Z" fill="black"/>
</svg>
