<svg width="200" height="100" viewBox="0 0 200 100" fill="none" xmlns="http://www.w3.org/2000/svg">
<rect x="0.5" y="0.5" width="199" height="99" stroke="black"/>
<path d="M20 62.4271L21.5318 67.1416L21.7002 67.6598H22.2451H27.2023L23.1919 70.5736L22.751 70.8939L22.9194 71.4121L24.4513 76.1266L20.4408 73.2129L20 72.8926L19.5592 73.2129L15.5487 76.1266L17.0806 71.4121L17.249 70.8939L16.8081 70.5736L12.7977 67.6598H17.7549H18.2998L18.4682 67.1416L20 62.4271Z" fill="#FFB800" stroke="black" stroke-width="1.5"/>
<path d="M20 22.4271L21.5318 27.1416L21.7002 27.6598H22.2451H27.2023L23.1919 30.5736L22.751 30.8939L22.9194 31.4121L24.4513 36.1266L20.4408 33.2129L20 32.8926L19.5592 33.2129L15.5487 36.1266L17.0806 31.4121L17.249 30.8939L16.8081 30.5736L12.7977 27.6598H17.7549H18.2998L18.4682 27.1416L20 22.4271Z" fill="#FFB800" stroke="black" stroke-width="1.5"/>
<path d="M20 42.4271L21.5318 47.1416L21.7002 47.6598H22.2451H27.2023L23.1919 50.5736L22.751 50.8939L22.9194 51.4121L24.4513 56.1266L20.4408 53.2129L20 52.8926L19.5592 53.2129L15.5487 56.1266L17.0806 51.4121L17.249 50.8939L16.8081 50.5736L12.7977 47.6598H17.7549H18.2998L18.4682 47.1416L20 42.4271Z" fill="#FFB800" stroke="black" stroke-width="1.5"/>
<path d="M180 32.4271L181.532 37.1416L181.7 37.6598H182.245H187.202L183.192 40.5736L182.751 40.8939L182.919 41.4121L184.451 46.1266L180.441 43.2129L180 42.8926L179.559 43.2129L175.549 46.1266L177.081 41.4121L177.249 40.8939L176.808 40.5736L172.798 37.6598H177.755H178.3L178.468 37.1416L180 32.4271Z" fill="#FFB800" stroke="black" stroke-width="1.5"/>
<path d="M180 52.4271L181.532 57.1416L181.7 57.6598H182.245H187.202L183.192 60.5736L182.751 60.8939L182.919 61.4121L184.451 66.1266L180.441 63.2129L180 62.8926L179.559 63.2129L175.549 66.1266L177.081 61.4121L177.249 60.8939L176.808 60.5736L172.798 57.6598H177.755H178.3L178.468 57.1416L180 52.4271Z" fill="#FFB800" stroke="black" stroke-width="1.5"/>
<path d="M77.494 53.696L79.886 40.8H86.646C86.7847 41.5453 86.854 42.074 86.854 42.386C86.022 42.6807 85.3027 42.906 84.696 43.062L86.542 56.504L88.336 56.738C88.336 57.4487 88.1367 58.2027 87.738 59H81.42L81.186 57.57C82.1567 57.1713 82.8847 56.92 83.37 56.816L81.368 46.208L78.716 57.726H76.064L71.956 45.012L69.746 56.504L71.54 56.738C71.54 57.4487 71.3407 58.2027 70.942 59H64.624L64.39 57.57C65.3607 57.1713 66.0887 56.92 66.574 56.816L68.42 43.062L66.262 42.386L66.47 40.8H73.75L77.234 53.696H77.494ZM94.9577 59.312C93.4843 59.312 92.3403 59.0087 91.5257 58.402C90.7283 57.7953 90.3297 56.7727 90.3297 55.334C90.3297 53.9647 90.8063 52.8467 91.7597 51.98C92.3143 51.4773 93.0857 51.1827 94.0737 51.096C95.0617 51.0093 96.4223 50.966 98.1557 50.966V50.55C98.1557 49.4927 97.9823 48.7213 97.6357 48.236C97.3063 47.7333 96.717 47.482 95.8677 47.482C95.4343 47.482 95.0443 47.5687 94.6977 47.742L94.0737 50.004L92.1497 49.952C91.7163 49.2933 91.4823 48.2447 91.4477 46.806C91.7943 46.6327 92.609 46.3727 93.8917 46.026C95.1743 45.662 95.9977 45.48 96.3617 45.48C98.2337 45.48 99.5943 45.87 100.444 46.65C101.293 47.4127 101.718 48.6347 101.718 50.316C101.718 51.98 101.64 54.1813 101.484 56.92C102.472 57.0067 103.234 57.154 103.772 57.362C103.789 57.57 103.798 57.8213 103.798 58.116L103.772 58.688C102.524 59.104 101.267 59.312 100.002 59.312C99.6723 59.312 99.4297 59.3033 99.2737 59.286C99.0137 58.766 98.8577 58.142 98.8057 57.414H98.6757C98.3463 57.726 97.7657 58.1247 96.9337 58.61C96.119 59.078 95.4603 59.312 94.9577 59.312ZM93.6577 55.49C93.6577 56.062 93.831 56.4867 94.1777 56.764C94.5417 57.024 94.949 57.154 95.3997 57.154C95.8503 57.154 96.3877 56.9547 97.0117 56.556C97.6357 56.14 98.1383 55.7673 98.5197 55.438L98.3897 53.046C97.0203 53.1153 95.989 53.2453 95.2957 53.436C94.2037 53.6613 93.6577 54.346 93.6577 55.49ZM104.345 62.9L104.891 62.926C105.463 62.926 105.879 62.6227 106.139 62.016C106.417 61.4267 106.555 60.69 106.555 59.806C106.555 57.6393 106.425 53.826 106.165 48.366C105.143 48.262 104.389 48.132 103.903 47.976C103.903 47.5427 103.964 46.9187 104.085 46.104C105.108 45.8267 106.859 45.688 109.337 45.688C109.667 45.688 109.875 45.6967 109.961 45.714C109.961 46.5633 109.814 47.352 109.519 48.08L109.415 59.338C109.398 61.3833 109.077 62.874 108.453 63.81C107.829 64.7633 106.607 65.24 104.787 65.24C104.198 65.24 103.47 65.1013 102.603 64.824C101.719 64.564 101.095 64.3127 100.731 64.07C100.818 62.406 101 61.158 101.277 60.326C101.676 60.17 102.205 60.092 102.863 60.092L103.721 60.118L104.345 62.9ZM109.337 40.774C109.493 41.554 109.571 42.152 109.571 42.568C109.571 42.9667 109.537 43.4173 109.467 43.92C108.774 44.076 108.185 44.154 107.699 44.154C107.231 44.154 106.659 44.128 105.983 44.076C105.827 43.296 105.749 42.7067 105.749 42.308C105.749 41.892 105.784 41.4327 105.853 40.93C106.547 40.774 107.127 40.696 107.595 40.696C108.081 40.696 108.661 40.722 109.337 40.774ZM118.363 47.56C117.739 47.56 117.029 47.716 116.231 48.028C116.006 48.3747 115.789 48.99 115.581 49.874C115.391 50.7407 115.295 51.616 115.295 52.5C115.295 54.1293 115.538 55.2907 116.023 55.984C116.509 56.66 117.289 56.998 118.363 56.998C119.455 56.998 120.244 56.66 120.729 55.984C121.215 55.2907 121.457 54.112 121.457 52.448C121.457 50.7667 121.206 49.536 120.703 48.756C120.218 47.9587 119.438 47.56 118.363 47.56ZM118.363 45.48C120.391 45.48 122.021 46.104 123.251 47.352C124.499 48.5827 125.123 50.3073 125.123 52.526C125.123 54.7273 124.508 56.4087 123.277 57.57C122.047 58.7313 120.409 59.312 118.363 59.312C116.318 59.312 114.68 58.7313 113.449 57.57C112.236 56.4087 111.629 54.7273 111.629 52.526C111.629 50.3073 112.245 48.5827 113.475 47.352C114.706 46.104 116.335 45.48 118.363 45.48ZM133.16 48.288C133.125 48.2013 132.952 48.158 132.64 48.158C132.328 48.158 131.79 48.392 131.028 48.86C130.958 52.2573 130.915 54.8053 130.898 56.504L132.926 56.764C132.926 57.5093 132.726 58.2547 132.328 59H125.854L125.62 57.57C126.694 57.1713 127.474 56.9113 127.96 56.79L127.674 48.366C126.772 48.2967 126.018 48.1667 125.412 47.976L125.594 46.104C126.062 45.896 127.752 45.7573 130.664 45.688C130.82 45.844 130.898 46.1473 130.898 46.598C132.423 45.8527 133.385 45.48 133.784 45.48C134.2 45.48 134.702 45.584 135.292 45.792C135.898 45.9827 136.358 46.1907 136.67 46.416V46.858C136.67 48.2793 136.496 49.5967 136.15 50.81C135.855 50.9313 135.465 50.992 134.98 50.992C134.494 50.992 134.044 50.966 133.628 50.914C133.576 50.6887 133.42 49.8133 133.16 48.288Z" fill="black"/>
</svg>
