<svg width="200" height="100" viewBox="0 0 200 100" fill="none" xmlns="http://www.w3.org/2000/svg">
<rect x="0.5" y="0.5" width="199" height="99" stroke="black"/>
<path d="M51.142 54.268C51.558 54.1987 51.87 54.164 52.078 54.164C52.3033 54.164 52.78 54.2247 53.508 54.346C53.5773 54.4847 53.6727 54.9267 53.794 55.672C53.9327 56.4173 54.002 57.024 54.002 57.492C54.002 57.9427 53.95 58.4453 53.846 59H41.236L41.002 57.57C41.8513 57.2233 42.5793 56.972 43.186 56.816C43.186 56.764 43.108 52.1793 42.952 43.062L40.794 42.386L41.002 40.8H47.762C47.7447 40.8 47.7447 40.8173 47.762 40.852C47.7967 40.8867 47.8313 40.9647 47.866 41.086C47.918 41.19 47.97 41.32 48.022 41.476C48.126 41.7533 48.1953 42.2127 48.23 42.854C47.346 42.9927 46.7653 43.0793 46.488 43.114C46.4187 49.094 46.3753 53.5573 46.358 56.504H50.57L51.142 54.268ZM60.0807 59.312C58.6074 59.312 57.4634 59.0087 56.6487 58.402C55.8514 57.7953 55.4527 56.7727 55.4527 55.334C55.4527 53.9647 55.9294 52.8467 56.8827 51.98C57.4374 51.4773 58.2087 51.1827 59.1967 51.096C60.1847 51.0093 61.5454 50.966 63.2787 50.966V50.55C63.2787 49.4927 63.1054 48.7213 62.7587 48.236C62.4294 47.7333 61.8401 47.482 60.9907 47.482C60.5574 47.482 60.1674 47.5687 59.8207 47.742L59.1967 50.004L57.2727 49.952C56.8394 49.2933 56.6054 48.2447 56.5707 46.806C56.9174 46.6327 57.7321 46.3727 59.0147 46.026C60.2974 45.662 61.1207 45.48 61.4847 45.48C63.3567 45.48 64.7174 45.87 65.5667 46.65C66.4161 47.4127 66.8407 48.6347 66.8407 50.316C66.8407 51.98 66.7627 54.1813 66.6067 56.92C67.5947 57.0067 68.3574 57.154 68.8947 57.362C68.9121 57.57 68.9207 57.8213 68.9207 58.116L68.8947 58.688C67.6467 59.104 66.3901 59.312 65.1247 59.312C64.7954 59.312 64.5527 59.3033 64.3967 59.286C64.1367 58.766 63.9807 58.142 63.9287 57.414H63.7987C63.4694 57.726 62.8887 58.1247 62.0567 58.61C61.2421 59.078 60.5834 59.312 60.0807 59.312ZM58.7807 55.49C58.7807 56.062 58.9541 56.4867 59.3007 56.764C59.6647 57.024 60.0721 57.154 60.5227 57.154C60.9734 57.154 61.5107 56.9547 62.1347 56.556C62.7587 56.14 63.2614 55.7673 63.6427 55.438L63.5127 53.046C62.1434 53.1153 61.1121 53.2453 60.4187 53.436C59.3267 53.6613 58.7807 54.346 58.7807 55.49ZM77.8663 45.48C79.5997 45.48 80.8563 45.9047 81.6363 46.754C82.4163 47.6033 82.8063 48.7907 82.8063 50.316C82.8063 51.8413 82.7197 53.904 82.5463 56.504L84.6003 56.738C84.6003 57.4487 84.401 58.2027 84.0023 59H77.5283L77.2943 57.57C78.109 57.2407 78.863 56.9807 79.5563 56.79C79.5043 54.7967 79.4523 53.124 79.4003 51.772C79.3483 50.4027 79.2183 49.4753 79.0103 48.99C78.8023 48.5047 78.343 48.262 77.6323 48.262C76.5577 48.262 75.5957 48.4527 74.7463 48.834C74.729 49.5793 74.677 50.8013 74.5903 52.5C74.521 54.1813 74.4777 55.516 74.4603 56.504L76.4883 56.738C76.4883 57.4487 76.289 58.2027 75.8903 59H69.4163L69.1823 57.57C70.049 57.2407 70.829 56.9807 71.5223 56.79C71.505 55.75 71.4443 54.3113 71.3403 52.474C71.2537 50.6367 71.2017 49.276 71.1843 48.392C70.543 48.3227 69.8583 48.1927 69.1303 48.002L69.2603 46.13C70.4737 45.8007 71.843 45.636 73.3683 45.636C73.559 45.7573 73.819 46.13 74.1483 46.754C74.7377 46.4593 75.457 46.1733 76.3063 45.896C77.1557 45.6187 77.6757 45.48 77.8663 45.48ZM96.8778 39.682C97.2072 39.682 97.4152 39.6907 97.5018 39.708C97.5018 40.6093 97.3892 41.398 97.1638 42.074C97.0945 43.946 97.0078 46.6153 96.9038 50.082C96.8172 53.5313 96.7565 55.8107 96.7218 56.92C97.7445 57.0587 98.5072 57.206 99.0098 57.362V58.61C97.9178 59.078 96.4185 59.312 94.5118 59.312C94.4078 59.1213 94.2692 58.6533 94.0958 57.908C92.5012 58.7747 91.3485 59.2427 90.6378 59.312C88.8698 59.312 87.5438 58.6707 86.6598 57.388C85.7932 56.1053 85.3598 54.4587 85.3598 52.448C85.3598 50.42 85.8018 48.7213 86.6858 47.352C87.5698 45.9653 88.8785 45.272 90.6118 45.272C91.5652 45.272 92.5705 45.5667 93.6278 46.156L93.4978 42.36C92.6832 42.2733 91.9985 42.1433 91.4438 41.97C91.4438 41.5367 91.5045 40.9127 91.6258 40.098C92.6485 39.8207 94.3992 39.682 96.8778 39.682ZM91.0278 47.82C89.5372 47.82 88.7918 49.2587 88.7918 52.136C88.7918 53.7827 89.0865 55.022 89.6758 55.854C90.0052 56.3393 90.4298 56.582 90.9498 56.582C91.8338 56.582 92.8305 56.2787 93.9398 55.672L93.7058 48.964C92.7178 48.2013 91.8252 47.82 91.0278 47.82ZM118.235 51.486C118.2 50.2727 118.053 49.432 117.793 48.964C117.55 48.496 116.978 48.262 116.077 48.262C115.193 48.262 114.37 48.4527 113.607 48.834C113.607 51.0527 113.494 53.6093 113.269 56.504L115.323 56.738C115.323 57.4487 115.124 58.2027 114.725 59H108.251L108.017 57.57C108.918 57.2407 109.707 56.9807 110.383 56.79L110.175 51.382C110.14 50.2553 110.002 49.458 109.759 48.99C109.534 48.5047 109.092 48.262 108.433 48.262C108.086 48.262 107.584 48.3227 106.925 48.444C106.266 48.5653 105.764 48.6953 105.417 48.834C105.417 48.886 105.339 51.4427 105.183 56.504L107.211 56.738C107.211 57.5007 107.012 58.2547 106.613 59H100.139L99.905 57.57C100.928 57.1713 101.708 56.9113 102.245 56.79L101.907 48.392C101.196 48.3227 100.512 48.1927 99.853 48.002L99.983 46.13C100.278 46.0433 100.91 45.9393 101.881 45.818C102.852 45.6967 103.588 45.636 104.091 45.636C104.16 45.688 104.29 45.8527 104.481 46.13C104.672 46.39 104.802 46.598 104.871 46.754C105.46 46.4593 106.171 46.1733 107.003 45.896C107.852 45.6187 108.372 45.48 108.563 45.48C110.4 45.48 111.744 45.9567 112.593 46.91C113.252 46.5633 114.049 46.2427 114.985 45.948C115.921 45.636 116.502 45.48 116.727 45.48C118.374 45.48 119.604 45.87 120.419 46.65C121.234 47.43 121.641 48.73 121.641 50.55C121.641 51.5553 121.563 53.54 121.407 56.504L123.435 56.738C123.435 57.5007 123.236 58.2547 122.837 59H116.389L116.155 57.57C116.97 57.2407 117.715 56.9807 118.391 56.79C118.374 56.3913 118.356 55.828 118.339 55.1C118.304 53.904 118.27 52.6993 118.235 51.486ZM129.46 45.688C129.789 45.688 129.997 45.6967 130.084 45.714C130.084 46.5633 129.937 47.352 129.642 48.08C129.573 51.824 129.529 54.632 129.512 56.504L131.54 56.738C131.54 57.4487 131.341 58.2027 130.942 59H124.468L124.234 57.57C125.309 57.1713 126.089 56.9113 126.574 56.79L126.288 48.366C125.265 48.262 124.511 48.132 124.026 47.976C124.026 47.5427 124.087 46.9187 124.208 46.104C125.231 45.8267 126.981 45.688 129.46 45.688ZM129.46 40.774C129.616 41.554 129.694 42.152 129.694 42.568C129.694 42.9667 129.659 43.4173 129.59 43.92C128.897 44.076 128.307 44.154 127.822 44.154C127.354 44.154 126.782 44.128 126.106 44.076C125.95 43.296 125.872 42.7067 125.872 42.308C125.872 41.892 125.907 41.4327 125.976 40.93C126.669 40.774 127.25 40.696 127.718 40.696C128.203 40.696 128.784 40.722 129.46 40.774ZM140.708 45.48C142.441 45.48 143.698 45.9047 144.478 46.754C145.258 47.6033 145.648 48.7907 145.648 50.316C145.648 51.8413 145.561 53.904 145.388 56.504L147.442 56.738C147.442 57.4487 147.243 58.2027 146.844 59H140.37L140.136 57.57C140.951 57.2407 141.705 56.9807 142.398 56.79C142.346 54.7967 142.294 53.124 142.242 51.772C142.19 50.4027 142.06 49.4753 141.852 48.99C141.644 48.5047 141.185 48.262 140.474 48.262C139.399 48.262 138.437 48.4527 137.588 48.834C137.571 49.5793 137.519 50.8013 137.432 52.5C137.363 54.1813 137.319 55.516 137.302 56.504L139.33 56.738C139.33 57.4487 139.131 58.2027 138.732 59H132.258L132.024 57.57C132.891 57.2407 133.671 56.9807 134.364 56.79C134.347 55.75 134.286 54.3113 134.182 52.474C134.095 50.6367 134.043 49.276 134.026 48.392C133.385 48.3227 132.7 48.1927 131.972 48.002L132.102 46.13C133.315 45.8007 134.685 45.636 136.21 45.636C136.401 45.7573 136.661 46.13 136.99 46.754C137.579 46.4593 138.299 46.1733 139.148 45.896C139.997 45.6187 140.517 45.48 140.708 45.48ZM154.988 56.764C155.577 56.764 156.773 56.3567 158.576 55.542C158.957 56.0967 159.243 56.738 159.434 57.466C158.48 58.0553 157.544 58.5147 156.626 58.844C155.724 59.156 155.083 59.312 154.702 59.312C152.604 59.312 151.01 58.7313 149.918 57.57C148.843 56.4087 148.306 54.762 148.306 52.63C148.306 50.4807 148.843 48.756 149.918 47.456C150.992 46.1387 152.587 45.48 154.702 45.48C156.383 45.48 157.666 46.026 158.55 47.118C159.434 48.21 159.876 49.6313 159.876 51.382C159.876 51.746 159.668 52.162 159.252 52.63L151.764 52.5C151.798 53.8867 152.058 54.944 152.544 55.672C153.029 56.4 153.844 56.764 154.988 56.764ZM154.468 47.638C153.809 47.638 153.194 47.768 152.622 48.028C152.223 48.86 151.972 49.6313 151.868 50.342C153.22 50.29 154.754 50.2553 156.47 50.238C156.383 48.5047 155.716 47.638 154.468 47.638Z" fill="black"/>
</svg>
