<svg width="200" height="100" viewBox="0 0 200 100" fill="none" xmlns="http://www.w3.org/2000/svg">
<rect x="0.5" y="0.5" width="199" height="99" stroke="black"/>
<path d="M20 62.4271L21.5318 67.1416L21.7002 67.6598H22.2451H27.2023L23.1919 70.5736L22.751 70.8939L22.9194 71.4121L24.4513 76.1266L20.4408 73.2129L20 72.8926L19.5592 73.2129L15.5487 76.1266L17.0806 71.4121L17.249 70.8939L16.8081 70.5736L12.7977 67.6598H17.7549H18.2998L18.4682 67.1416L20 62.4271Z" fill="#FFB800" stroke="black" stroke-width="1.5"/>
<path d="M20 22.4271L21.5318 27.1416L21.7002 27.6598H22.2451H27.2023L23.1919 30.5736L22.751 30.8939L22.9194 31.4121L24.4513 36.1266L20.4408 33.2129L20 32.8926L19.5592 33.2129L15.5487 36.1266L17.0806 31.4121L17.249 30.8939L16.8081 30.5736L12.7977 27.6598H17.7549H18.2998L18.4682 27.1416L20 22.4271Z" fill="#FFB800" stroke="black" stroke-width="1.5"/>
<path d="M20 42.4271L21.5318 47.1416L21.7002 47.6598H22.2451H27.2023L23.1919 50.5736L22.751 50.8939L22.9194 51.4121L24.4513 56.1266L20.4408 53.2129L20 52.8926L19.5592 53.2129L15.5487 56.1266L17.0806 51.4121L17.249 50.8939L16.8081 50.5736L12.7977 47.6598H17.7549H18.2998L18.4682 47.1416L20 42.4271Z" fill="#FFB800" stroke="black" stroke-width="1.5"/>
<path d="M180 62.4271L181.532 67.1416L181.7 67.6598H182.245H187.202L183.192 70.5736L182.751 70.8939L182.919 71.4121L184.451 76.1266L180.441 73.2129L180 72.8926L179.559 73.2129L175.549 76.1266L177.081 71.4121L177.249 70.8939L176.808 70.5736L172.798 67.6598H177.755H178.3L178.468 67.1416L180 62.4271Z" fill="#FFB800" stroke="black" stroke-width="1.5"/>
<path d="M180 22.4271L181.532 27.1416L181.7 27.6598H182.245H187.202L183.192 30.5736L182.751 30.8939L182.919 31.4121L184.451 36.1266L180.441 33.2129L180 32.8926L179.559 33.2129L175.549 36.1266L177.081 31.4121L177.249 30.8939L176.808 30.5736L172.798 27.6598H177.755H178.3L178.468 27.1416L180 22.4271Z" fill="#FFB800" stroke="black" stroke-width="1.5"/>
<path d="M180 42.4271L181.532 47.1416L181.7 47.6598H182.245H187.202L183.192 50.5736L182.751 50.8939L182.919 51.4121L184.451 56.1266L180.441 53.2129L180 52.8926L179.559 53.2129L175.549 56.1266L177.081 51.4121L177.249 50.8939L176.808 50.5736L172.798 47.6598H177.755H178.3L178.468 47.1416L180 42.4271Z" fill="#FFB800" stroke="black" stroke-width="1.5"/>
<path d="M68.402 46.676L67.596 46.65L66.842 43.53C65.8367 43.3567 65.0827 43.27 64.58 43.27C63.592 43.27 62.4827 43.4693 61.252 43.868C60.888 44.544 60.602 45.4107 60.394 46.468C60.186 47.5253 60.082 48.522 60.082 49.458C60.082 54.242 61.46 56.634 64.216 56.634C65.3947 56.634 66.3307 56.4607 67.024 56.114L67.57 52.942C68.662 52.942 69.494 53.0027 70.066 53.124C70.3433 55.0133 70.482 56.5473 70.482 57.726C70.066 58.038 69.2253 58.3847 67.96 58.766C66.712 59.1473 65.4813 59.338 64.268 59.338C59.1027 59.338 56.52 56.1487 56.52 49.77C56.52 46.7367 57.144 44.4313 58.392 42.854C59.6573 41.2767 61.668 40.488 64.424 40.488C65.7933 40.488 67.0067 40.6873 68.064 41.086C69 41.4327 69.7973 41.814 70.456 42.23C70.456 43.4087 70.326 44.83 70.066 46.494C69.5807 46.6153 69.026 46.676 68.402 46.676ZM79.0313 47.56C78.4073 47.56 77.6967 47.716 76.8993 48.028C76.674 48.3747 76.4573 48.99 76.2493 49.874C76.0587 50.7407 75.9633 51.616 75.9633 52.5C75.9633 54.1293 76.206 55.2907 76.6913 55.984C77.1767 56.66 77.9567 56.998 79.0313 56.998C80.1233 56.998 80.912 56.66 81.3973 55.984C81.8827 55.2907 82.1253 54.112 82.1253 52.448C82.1253 50.7667 81.874 49.536 81.3713 48.756C80.886 47.9587 80.106 47.56 79.0313 47.56ZM79.0313 45.48C81.0593 45.48 82.6887 46.104 83.9193 47.352C85.1673 48.5827 85.7913 50.3073 85.7913 52.526C85.7913 54.7273 85.176 56.4087 83.9453 57.57C82.7147 58.7313 81.0767 59.312 79.0313 59.312C76.986 59.312 75.348 58.7313 74.1173 57.57C72.904 56.4087 72.2973 54.7273 72.2973 52.526C72.2973 50.3073 72.9127 48.5827 74.1433 47.352C75.374 46.104 77.0033 45.48 79.0313 45.48ZM91.2796 39.682C91.6089 39.682 91.8169 39.6907 91.9036 39.708C91.9036 40.6093 91.7909 41.398 91.5656 42.074C91.5482 43.1487 91.5222 44.6653 91.4876 46.624C91.4182 50.9227 91.3662 54.216 91.3316 56.504L93.3596 56.738C93.3596 57.4487 93.1602 58.2027 92.7616 59H86.2876L86.0536 57.57C87.1282 57.1713 87.9082 56.9113 88.3936 56.79L87.8996 42.36C87.0849 42.2733 86.4002 42.1433 85.8456 41.97C85.8456 41.3287 85.9062 40.7047 86.0276 40.098C87.0502 39.8207 88.8009 39.682 91.2796 39.682ZM100.69 47.56C100.066 47.56 99.3549 47.716 98.5575 48.028C98.3322 48.3747 98.1155 48.99 97.9075 49.874C97.7169 50.7407 97.6215 51.616 97.6215 52.5C97.6215 54.1293 97.8642 55.2907 98.3495 55.984C98.8349 56.66 99.6149 56.998 100.69 56.998C101.782 56.998 102.57 56.66 103.056 55.984C103.541 55.2907 103.784 54.112 103.784 52.448C103.784 50.7667 103.532 49.536 103.03 48.756C102.544 47.9587 101.764 47.56 100.69 47.56ZM100.69 45.48C102.718 45.48 104.347 46.104 105.578 47.352C106.826 48.5827 107.45 50.3073 107.45 52.526C107.45 54.7273 106.834 56.4087 105.604 57.57C104.373 58.7313 102.735 59.312 100.69 59.312C98.6442 59.312 97.0062 58.7313 95.7755 57.57C94.5622 56.4087 93.9555 54.7273 93.9555 52.526C93.9555 50.3073 94.5709 48.5827 95.8015 47.352C97.0322 46.104 98.6615 45.48 100.69 45.48ZM116.474 45.48C118.207 45.48 119.464 45.9047 120.244 46.754C121.024 47.6033 121.414 48.7907 121.414 50.316C121.414 51.8413 121.327 53.904 121.154 56.504L123.208 56.738C123.208 57.4487 123.008 58.2027 122.61 59H116.136L115.902 57.57C116.716 57.2407 117.47 56.9807 118.164 56.79C118.112 54.7967 118.06 53.124 118.008 51.772C117.956 50.4027 117.826 49.4753 117.618 48.99C117.41 48.5047 116.95 48.262 116.24 48.262C115.165 48.262 114.203 48.4527 113.354 48.834C113.336 49.5793 113.284 50.8013 113.198 52.5C113.128 54.1813 113.085 55.516 113.068 56.504L115.096 56.738C115.096 57.4487 114.896 58.2027 114.498 59H108.024L107.79 57.57C108.656 57.2407 109.436 56.9807 110.13 56.79C110.112 55.75 110.052 54.3113 109.948 52.474C109.861 50.6367 109.809 49.276 109.792 48.392C109.15 48.3227 108.466 48.1927 107.738 48.002L107.868 46.13C109.081 45.8007 110.45 45.636 111.976 45.636C112.166 45.7573 112.426 46.13 112.756 46.754C113.345 46.4593 114.064 46.1733 114.914 45.896C115.763 45.6187 116.283 45.48 116.474 45.48ZM130.753 56.764C131.343 56.764 132.539 56.3567 134.341 55.542C134.723 56.0967 135.009 56.738 135.199 57.466C134.246 58.0553 133.31 58.5147 132.391 58.844C131.49 59.156 130.849 59.312 130.467 59.312C128.37 59.312 126.775 58.7313 125.683 57.57C124.609 56.4087 124.071 54.762 124.071 52.63C124.071 50.4807 124.609 48.756 125.683 47.456C126.758 46.1387 128.353 45.48 130.467 45.48C132.149 45.48 133.431 46.026 134.315 47.118C135.199 48.21 135.641 49.6313 135.641 51.382C135.641 51.746 135.433 52.162 135.017 52.63L127.529 52.5C127.564 53.8867 127.824 54.944 128.309 55.672C128.795 56.4 129.609 56.764 130.753 56.764ZM130.233 47.638C129.575 47.638 128.959 47.768 128.387 48.028C127.989 48.86 127.737 49.6313 127.633 50.342C128.985 50.29 130.519 50.2553 132.235 50.238C132.149 48.5047 131.481 47.638 130.233 47.638ZM142.264 39.682C142.593 39.682 142.801 39.6907 142.888 39.708C142.888 40.6093 142.775 41.398 142.55 42.074C142.533 43.1487 142.507 44.6653 142.472 46.624C142.403 50.9227 142.351 54.216 142.316 56.504L144.344 56.738C144.344 57.4487 144.145 58.2027 143.746 59H137.272L137.038 57.57C138.113 57.1713 138.893 56.9113 139.378 56.79L138.884 42.36C138.069 42.2733 137.385 42.1433 136.83 41.97C136.83 41.3287 136.891 40.7047 137.012 40.098C138.035 39.8207 139.785 39.682 142.264 39.682Z" fill="black"/>
</svg>
