<svg width="200" height="100" viewBox="0 0 200 100" fill="none" xmlns="http://www.w3.org/2000/svg">
<rect x="0.5" y="0.5" width="199" height="99" stroke="black"/>
<path d="M20 42.4271L21.5318 47.1416L21.7002 47.6598H22.2451H27.2023L23.1919 50.5736L22.751 50.8939L22.9194 51.4121L24.4513 56.1266L20.4408 53.2129L20 52.8926L19.5592 53.2129L15.5487 56.1266L17.0806 51.4121L17.249 50.8939L16.8081 50.5736L12.7977 47.6598H17.7549H18.2998L18.4682 47.1416L20 42.4271Z" fill="#FFB800" stroke="black" stroke-width="1.5"/>
<path d="M180 42.4271L181.532 47.1416L181.7 47.6598H182.245H187.202L183.192 50.5736L182.751 50.8939L182.919 51.4121L184.451 56.1266L180.441 53.2129L180 52.8926L179.559 53.2129L175.549 56.1266L177.081 51.4121L177.249 50.8939L176.808 50.5736L172.798 47.6598H177.755H178.3L178.468 47.1416L180 42.4271Z" fill="#FFB800" stroke="black" stroke-width="1.5"/>
<path d="M53.644 56.504C55.6547 56.504 56.66 55.646 56.66 53.93C56.66 53.202 56.2787 52.5867 55.516 52.084C54.9613 51.7027 54.1987 51.2953 53.228 50.862C52.2747 50.4113 51.5553 50.056 51.07 49.796C50.602 49.536 50.056 49.172 49.432 48.704C48.236 47.7853 47.638 46.6413 47.638 45.272C47.638 43.9027 48.1667 42.7673 49.224 41.866C50.2987 40.9473 51.746 40.488 53.566 40.488C55.386 40.488 57.3273 41.0687 59.39 42.23C59.39 43.478 59.26 44.83 59 46.286C58.4453 46.4593 57.622 46.546 56.53 46.546L55.776 43.452C55.1347 43.2613 54.4327 43.166 53.67 43.166C52.9073 43.166 52.318 43.3307 51.902 43.66C51.486 43.9893 51.278 44.4833 51.278 45.142C51.278 45.7833 51.5987 46.364 52.24 46.884C52.8987 47.3867 53.6873 47.8547 54.606 48.288C55.5247 48.704 56.1573 48.9987 56.504 49.172C56.8507 49.3453 57.2927 49.6053 57.83 49.952C58.3673 50.2987 58.7747 50.628 59.052 50.94C59.7627 51.772 60.118 52.6993 60.118 53.722C60.118 55.5247 59.52 56.9113 58.324 57.882C57.128 58.8527 55.568 59.338 53.644 59.338C52.6213 59.338 51.4947 59.1647 50.264 58.818C49.0507 58.454 48.0193 57.9947 47.17 57.44C47.2047 56.3827 47.3433 54.9527 47.586 53.15C48.2793 53.0113 49.1113 52.942 50.082 52.942L50.628 56.062C51.5813 56.3567 52.5867 56.504 53.644 56.504ZM68.6263 56.764C69.2156 56.764 70.4116 56.3567 72.2143 55.542C72.5956 56.0967 72.8816 56.738 73.0723 57.466C72.119 58.0553 71.183 58.5147 70.2643 58.844C69.363 59.156 68.7216 59.312 68.3403 59.312C66.243 59.312 64.6483 58.7313 63.5563 57.57C62.4816 56.4087 61.9443 54.762 61.9443 52.63C61.9443 50.4807 62.4816 48.756 63.5563 47.456C64.631 46.1387 66.2256 45.48 68.3403 45.48C70.0216 45.48 71.3043 46.026 72.1883 47.118C73.0723 48.21 73.5143 49.6313 73.5143 51.382C73.5143 51.746 73.3063 52.162 72.8903 52.63L65.4023 52.5C65.437 53.8867 65.697 54.944 66.1823 55.672C66.6676 56.4 67.4823 56.764 68.6263 56.764ZM68.1063 47.638C67.4476 47.638 66.8323 47.768 66.2603 48.028C65.8616 48.86 65.6103 49.6313 65.5063 50.342C66.8583 50.29 68.3923 50.2553 70.1083 50.238C70.0216 48.5047 69.3543 47.638 68.1063 47.638ZM82.685 48.288C82.6503 48.2013 82.477 48.158 82.165 48.158C81.853 48.158 81.3157 48.392 80.553 48.86C80.4837 52.2573 80.4403 54.8053 80.423 56.504L82.451 56.764C82.451 57.5093 82.2517 58.2547 81.853 59H75.379L75.145 57.57C76.2197 57.1713 76.9997 56.9113 77.485 56.79L77.199 48.366C76.2977 48.2967 75.5437 48.1667 74.937 47.976L75.119 46.104C75.587 45.896 77.277 45.7573 80.189 45.688C80.345 45.844 80.423 46.1473 80.423 46.598C81.9483 45.8527 82.9103 45.48 83.309 45.48C83.725 45.48 84.2277 45.584 84.817 45.792C85.4237 45.9827 85.883 46.1907 86.195 46.416V46.858C86.195 48.2793 86.0217 49.5967 85.675 50.81C85.3803 50.9313 84.9903 50.992 84.505 50.992C84.0197 50.992 83.569 50.966 83.153 50.914C83.101 50.6887 82.945 49.8133 82.685 48.288ZM97.1727 54.502C96.6007 54.866 95.994 55.1347 95.3527 55.308C94.7113 55.464 94.0873 55.542 93.4807 55.542C92.8913 55.542 92.3713 55.4813 91.9207 55.36C91.73 55.8107 91.548 56.1487 91.3747 56.374C91.5133 56.582 92.9693 56.686 95.7427 56.686C97.476 56.686 98.698 56.9547 99.4087 57.492C99.738 57.7173 100.024 58.0727 100.267 58.558C100.527 59.0433 100.657 59.6673 100.657 60.43C100.657 61.21 100.275 61.99 99.5127 62.77C98.75 63.55 97.7967 64.1653 96.6527 64.616C95.5087 65.0667 94.3733 65.292 93.2467 65.292C91.3747 65.292 89.858 64.9193 88.6967 64.174C87.5353 63.446 86.9547 62.536 86.9547 61.444C86.9547 61.236 87.258 60.7247 87.8647 59.91C88.4713 59.1127 88.87 58.6533 89.0607 58.532C88.8873 58.4453 88.584 58.1593 88.1507 57.674C87.7173 57.1713 87.4747 56.816 87.4227 56.608C87.648 55.984 88.3413 55.204 89.5027 54.268C88.1507 53.4533 87.4747 52.084 87.4747 50.16C87.4747 48.6347 87.9947 47.4733 89.0347 46.676C90.092 45.8787 91.4787 45.48 93.1947 45.48C94.928 45.48 96.2367 45.714 97.1207 46.182C98.594 45.922 99.634 45.792 100.241 45.792C100.865 45.792 101.272 45.8007 101.463 45.818C101.463 46.234 101.359 46.7107 101.151 47.248C100.96 47.768 100.778 48.132 100.605 48.34L98.3687 47.82C98.802 48.444 99.0187 49.25 99.0187 50.238C99.0187 51.226 98.854 52.0927 98.5247 52.838C98.1953 53.566 97.7447 54.1207 97.1727 54.502ZM97.0427 61.938C97.164 61.6087 97.2247 61.2273 97.2247 60.794C97.2247 60.3607 97.034 60.04 96.6527 59.832C96.2713 59.6413 95.8207 59.546 95.3007 59.546C93.2727 59.546 91.9293 59.5287 91.2707 59.494C91.132 59.7887 90.9587 60.2047 90.7507 60.742C90.5427 61.2967 90.4387 61.626 90.4387 61.73C90.4387 61.834 90.508 61.9813 90.6467 62.172C90.7853 62.38 91.08 62.5967 91.5307 62.822C91.9987 63.0473 92.562 63.16 93.2207 63.16C93.8967 63.16 94.6853 63.004 95.5867 62.692C96.488 62.38 96.9733 62.1287 97.0427 61.938ZM94.9367 48.132C94.538 47.664 93.9747 47.43 93.2467 47.43C92.5187 47.43 91.9467 47.664 91.5307 48.132C91.132 48.6 90.9327 49.2847 90.9327 50.186C90.9327 51.07 91.1407 51.7633 91.5567 52.266C91.9727 52.7687 92.536 53.02 93.2467 53.02C94.7893 53.02 95.5607 52.0667 95.5607 50.16C95.5607 49.276 95.3527 48.6 94.9367 48.132ZM108.642 56.764C109.231 56.764 110.427 56.3567 112.23 55.542C112.611 56.0967 112.897 56.738 113.088 57.466C112.135 58.0553 111.199 58.5147 110.28 58.844C109.379 59.156 108.737 59.312 108.356 59.312C106.259 59.312 104.664 58.7313 103.572 57.57C102.497 56.4087 101.96 54.762 101.96 52.63C101.96 50.4807 102.497 48.756 103.572 47.456C104.647 46.1387 106.241 45.48 108.356 45.48C110.037 45.48 111.32 46.026 112.204 47.118C113.088 48.21 113.53 49.6313 113.53 51.382C113.53 51.746 113.322 52.162 112.906 52.63L105.418 52.5C105.453 53.8867 105.713 54.944 106.198 55.672C106.683 56.4 107.498 56.764 108.642 56.764ZM108.122 47.638C107.463 47.638 106.848 47.768 106.276 48.028C105.877 48.86 105.626 49.6313 105.522 50.342C106.874 50.29 108.408 50.2553 110.124 50.238C110.037 48.5047 109.37 47.638 108.122 47.638ZM119.919 59.312C118.445 59.312 117.301 59.0087 116.487 58.402C115.689 57.7953 115.291 56.7727 115.291 55.334C115.291 53.9647 115.767 52.8467 116.721 51.98C117.275 51.4773 118.047 51.1827 119.035 51.096C120.023 51.0093 121.383 50.966 123.117 50.966V50.55C123.117 49.4927 122.943 48.7213 122.597 48.236C122.267 47.7333 121.678 47.482 120.829 47.482C120.395 47.482 120.005 47.5687 119.659 47.742L119.035 50.004L117.111 49.952C116.677 49.2933 116.443 48.2447 116.409 46.806C116.755 46.6327 117.57 46.3727 118.853 46.026C120.135 45.662 120.959 45.48 121.323 45.48C123.195 45.48 124.555 45.87 125.405 46.65C126.254 47.4127 126.679 48.6347 126.679 50.316C126.679 51.98 126.601 54.1813 126.445 56.92C127.433 57.0067 128.195 57.154 128.733 57.362C128.75 57.57 128.759 57.8213 128.759 58.116L128.733 58.688C127.485 59.104 126.228 59.312 124.963 59.312C124.633 59.312 124.391 59.3033 124.235 59.286C123.975 58.766 123.819 58.142 123.767 57.414H123.637C123.307 57.726 122.727 58.1247 121.895 58.61C121.08 59.078 120.421 59.312 119.919 59.312ZM118.619 55.49C118.619 56.062 118.792 56.4867 119.139 56.764C119.503 57.024 119.91 57.154 120.361 57.154C120.811 57.154 121.349 56.9547 121.973 56.556C122.597 56.14 123.099 55.7673 123.481 55.438L123.351 53.046C121.981 53.1153 120.95 53.2453 120.257 53.436C119.165 53.6613 118.619 54.346 118.619 55.49ZM137.704 45.48C139.438 45.48 140.694 45.9047 141.474 46.754C142.254 47.6033 142.644 48.7907 142.644 50.316C142.644 51.8413 142.558 53.904 142.384 56.504L144.438 56.738C144.438 57.4487 144.239 58.2027 143.84 59H137.366L137.132 57.57C137.947 57.2407 138.701 56.9807 139.394 56.79C139.342 54.7967 139.29 53.124 139.238 51.772C139.186 50.4027 139.056 49.4753 138.848 48.99C138.64 48.5047 138.181 48.262 137.47 48.262C136.396 48.262 135.434 48.4527 134.584 48.834C134.567 49.5793 134.515 50.8013 134.428 52.5C134.359 54.1813 134.316 55.516 134.298 56.504L136.326 56.738C136.326 57.4487 136.127 58.2027 135.728 59H129.254L129.02 57.57C129.887 57.2407 130.667 56.9807 131.36 56.79C131.343 55.75 131.282 54.3113 131.178 52.474C131.092 50.6367 131.04 49.276 131.022 48.392C130.381 48.3227 129.696 48.1927 128.968 48.002L129.098 46.13C130.312 45.8007 131.681 45.636 133.206 45.636C133.397 45.7573 133.657 46.13 133.986 46.754C134.576 46.4593 135.295 46.1733 136.144 45.896C136.994 45.6187 137.514 45.48 137.704 45.48ZM148.214 59.312L147.642 59.286C147.538 59.0953 147.399 58.74 147.226 58.22C147.052 57.7 146.957 57.31 146.94 57.05C146.853 55.334 146.758 52.3613 146.654 48.132H144.834L144.912 46.65C145.31 46.3727 145.787 46.1213 146.342 45.896L148.448 42.568C149.124 42.6373 149.652 42.8193 150.034 43.114L150.008 45.584C151.1 45.6187 152.114 45.7227 153.05 45.896C153.05 46.5893 152.833 47.3347 152.4 48.132H149.982C149.912 51.772 149.869 54.502 149.852 56.322C150.545 56.3913 151.49 56.5907 152.686 56.92L152.66 58.272C152.365 58.4627 151.706 58.688 150.684 58.948C149.678 59.1907 148.855 59.312 148.214 59.312Z" fill="black"/>
</svg>
