<svg width="200" height="100" viewBox="0 0 200 100" fill="none" xmlns="http://www.w3.org/2000/svg">
<rect x="0.5" y="0.5" width="199" height="99" stroke="black"/>
<path d="M66.644 56.504C68.6547 56.504 69.66 55.646 69.66 53.93C69.66 53.202 69.2787 52.5867 68.516 52.084C67.9613 51.7027 67.1987 51.2953 66.228 50.862C65.2747 50.4113 64.5553 50.056 64.07 49.796C63.602 49.536 63.056 49.172 62.432 48.704C61.236 47.7853 60.638 46.6413 60.638 45.272C60.638 43.9027 61.1667 42.7673 62.224 41.866C63.2987 40.9473 64.746 40.488 66.566 40.488C68.386 40.488 70.3273 41.0687 72.39 42.23C72.39 43.478 72.26 44.83 72 46.286C71.4453 46.4593 70.622 46.546 69.53 46.546L68.776 43.452C68.1347 43.2613 67.4327 43.166 66.67 43.166C65.9073 43.166 65.318 43.3307 64.902 43.66C64.486 43.9893 64.278 44.4833 64.278 45.142C64.278 45.7833 64.5987 46.364 65.24 46.884C65.8987 47.3867 66.6873 47.8547 67.606 48.288C68.5247 48.704 69.1573 48.9987 69.504 49.172C69.8507 49.3453 70.2927 49.6053 70.83 49.952C71.3673 50.2987 71.7747 50.628 72.052 50.94C72.7627 51.772 73.118 52.6993 73.118 53.722C73.118 55.5247 72.52 56.9113 71.324 57.882C70.128 58.8527 68.568 59.338 66.644 59.338C65.6213 59.338 64.4947 59.1647 63.264 58.818C62.0507 58.454 61.0193 57.9947 60.17 57.44C60.2047 56.3827 60.3433 54.9527 60.586 53.15C61.2793 53.0113 62.1113 52.942 63.082 52.942L63.628 56.062C64.5813 56.3567 65.5867 56.504 66.644 56.504ZM79.5983 59.312C78.125 59.312 76.981 59.0087 76.1663 58.402C75.369 57.7953 74.9703 56.7727 74.9703 55.334C74.9703 53.9647 75.447 52.8467 76.4003 51.98C76.955 51.4773 77.7263 51.1827 78.7143 51.096C79.7023 51.0093 81.063 50.966 82.7963 50.966V50.55C82.7963 49.4927 82.623 48.7213 82.2763 48.236C81.947 47.7333 81.3576 47.482 80.5083 47.482C80.075 47.482 79.685 47.5687 79.3383 47.742L78.7143 50.004L76.7903 49.952C76.357 49.2933 76.123 48.2447 76.0883 46.806C76.435 46.6327 77.2496 46.3727 78.5323 46.026C79.815 45.662 80.6383 45.48 81.0023 45.48C82.8743 45.48 84.235 45.87 85.0843 46.65C85.9336 47.4127 86.3583 48.6347 86.3583 50.316C86.3583 51.98 86.2803 54.1813 86.1243 56.92C87.1123 57.0067 87.875 57.154 88.4123 57.362C88.4296 57.57 88.4383 57.8213 88.4383 58.116L88.4123 58.688C87.1643 59.104 85.9076 59.312 84.6423 59.312C84.313 59.312 84.0703 59.3033 83.9143 59.286C83.6543 58.766 83.4983 58.142 83.4463 57.414H83.3163C82.987 57.726 82.4063 58.1247 81.5743 58.61C80.7596 59.078 80.101 59.312 79.5983 59.312ZM78.2983 55.49C78.2983 56.062 78.4716 56.4867 78.8183 56.764C79.1823 57.024 79.5896 57.154 80.0403 57.154C80.491 57.154 81.0283 56.9547 81.6523 56.556C82.2763 56.14 82.779 55.7673 83.1603 55.438L83.0303 53.046C81.661 53.1153 80.6296 53.2453 79.9363 53.436C78.8443 53.6613 78.2983 54.346 78.2983 55.49ZM97.0199 59.312C96.0146 59.312 94.9573 58.9827 93.8479 58.324C93.8133 60.1613 93.7959 61.548 93.7959 62.484L95.8239 62.718C95.8239 63.4807 95.6246 64.2347 95.2259 64.98H88.7519L88.5179 63.55C89.6273 63.134 90.4073 62.874 90.8579 62.77L90.3639 48.34C89.5493 48.2707 88.8646 48.1407 88.3099 47.95C88.3099 47.3087 88.3706 46.6847 88.4919 46.078C89.2199 45.922 90.8319 45.7833 93.3279 45.662C93.4666 45.8873 93.6226 46.2687 93.7959 46.806C95.5986 45.922 96.7859 45.48 97.3579 45.48C99.0739 45.48 100.348 46.0867 101.18 47.3C102.012 48.496 102.428 50.108 102.428 52.136C102.428 54.164 101.96 55.8713 101.024 57.258C100.105 58.6273 98.7706 59.312 97.0199 59.312ZM94.0039 49.094L93.8999 55.672C94.2986 56.036 94.7666 56.3567 95.3039 56.634C95.8586 56.894 96.3266 57.024 96.7079 57.024C98.2333 57.024 98.9959 55.5593 98.9959 52.63C98.9959 51.538 98.8833 50.6627 98.6579 50.004C98.4499 49.3453 98.1986 48.886 97.9039 48.626C97.6266 48.3487 97.2973 48.21 96.9159 48.21C96.1533 48.21 95.1826 48.5047 94.0039 49.094ZM111.086 59.312C110.081 59.312 109.024 58.9827 107.914 58.324C107.88 60.1613 107.862 61.548 107.862 62.484L109.89 62.718C109.89 63.4807 109.691 64.2347 109.292 64.98H102.818L102.584 63.55C103.694 63.134 104.474 62.874 104.924 62.77L104.43 48.34C103.616 48.2707 102.931 48.1407 102.376 47.95C102.376 47.3087 102.437 46.6847 102.558 46.078C103.286 45.922 104.898 45.7833 107.394 45.662C107.533 45.8873 107.689 46.2687 107.862 46.806C109.665 45.922 110.852 45.48 111.424 45.48C113.14 45.48 114.414 46.0867 115.246 47.3C116.078 48.496 116.494 50.108 116.494 52.136C116.494 54.164 116.026 55.8713 115.09 57.258C114.172 58.6273 112.837 59.312 111.086 59.312ZM108.07 49.094L107.966 55.672C108.365 56.036 108.833 56.3567 109.37 56.634C109.925 56.894 110.393 57.024 110.774 57.024C112.3 57.024 113.062 55.5593 113.062 52.63C113.062 51.538 112.95 50.6627 112.724 50.004C112.516 49.3453 112.265 48.886 111.97 48.626C111.693 48.3487 111.364 48.21 110.982 48.21C110.22 48.21 109.249 48.5047 108.07 49.094ZM123.775 56.764C124.364 56.764 125.56 56.3567 127.363 55.542C127.744 56.0967 128.03 56.738 128.221 57.466C127.267 58.0553 126.331 58.5147 125.413 58.844C124.511 59.156 123.87 59.312 123.489 59.312C121.391 59.312 119.797 58.7313 118.705 57.57C117.63 56.4087 117.093 54.762 117.093 52.63C117.093 50.4807 117.63 48.756 118.705 47.456C119.779 46.1387 121.374 45.48 123.489 45.48C125.17 45.48 126.453 46.026 127.337 47.118C128.221 48.21 128.663 49.6313 128.663 51.382C128.663 51.746 128.455 52.162 128.039 52.63L120.551 52.5C120.585 53.8867 120.845 54.944 121.331 55.672C121.816 56.4 122.631 56.764 123.775 56.764ZM123.255 47.638C122.596 47.638 121.981 47.768 121.409 48.028C121.01 48.86 120.759 49.6313 120.655 50.342C122.007 50.29 123.541 50.2553 125.257 50.238C125.17 48.5047 124.503 47.638 123.255 47.638ZM137.833 48.288C137.799 48.2013 137.625 48.158 137.313 48.158C137.001 48.158 136.464 48.392 135.701 48.86C135.632 52.2573 135.589 54.8053 135.571 56.504L137.599 56.764C137.599 57.5093 137.4 58.2547 137.001 59H130.527L130.293 57.57C131.368 57.1713 132.148 56.9113 132.633 56.79L132.347 48.366C131.446 48.2967 130.692 48.1667 130.085 47.976L130.267 46.104C130.735 45.896 132.425 45.7573 135.337 45.688C135.493 45.844 135.571 46.1473 135.571 46.598C137.097 45.8527 138.059 45.48 138.457 45.48C138.873 45.48 139.376 45.584 139.965 45.792C140.572 45.9827 141.031 46.1907 141.343 46.416V46.858C141.343 48.2793 141.17 49.5967 140.823 50.81C140.529 50.9313 140.139 50.992 139.653 50.992C139.168 50.992 138.717 50.966 138.301 50.914C138.249 50.6887 138.093 49.8133 137.833 48.288Z" fill="black"/>
<path d="M14 36H20M26 36H20M20 36V52M20 52H25V60L22 64L20 65L18 64L15 60V52H20Z" stroke="black" stroke-width="3"/>
<path d="M174 36H180M186 36H180M180 36V52M180 52H185V60L182 64L180 65L178 64L175 60V52H180Z" stroke="black" stroke-width="3"/>
</svg>
